<mxfile host="app.diagrams.net" modified="2023-06-21T07:35:22.088Z" agent="Mozilla/5.0 (Windows NT 10.0; Win64; x64; rv:109.0) Gecko/20100101 Firefox/114.0" etag="4LlzKVlM2uCKoCBE8uZp" version="21.5.0" type="device" pages="7">
  <diagram name="Page-1" id="fmb1lHCAGMQ2jmDnb-JD">
    <mxGraphModel dx="1050" dy="566" grid="1" gridSize="10" guides="1" tooltips="1" connect="1" arrows="1" fold="1" page="1" pageScale="1" pageWidth="827" pageHeight="1169" math="0" shadow="0">
      <root>
        <mxCell id="0" />
        <mxCell id="1" parent="0" />
        <mxCell id="92T0nFWncrSIPCJ4tK7a-1" value="0" style="rounded=0;whiteSpace=wrap;html=1;fontStyle=1" vertex="1" parent="1">
          <mxGeometry x="540" y="90" width="120" height="40" as="geometry" />
        </mxCell>
        <mxCell id="92T0nFWncrSIPCJ4tK7a-2" value="" style="shape=image;verticalLabelPosition=bottom;labelBackgroundColor=default;verticalAlign=top;aspect=fixed;imageAspect=0;image=https://www.allaboutcircuits.com/uploads/articles/two-input-and-gate-truth-table.jpg;" vertex="1" parent="1">
          <mxGeometry x="60" y="10" width="289" height="302" as="geometry" />
        </mxCell>
        <mxCell id="92T0nFWncrSIPCJ4tK7a-3" value="0" style="rounded=0;whiteSpace=wrap;html=1;fontStyle=1" vertex="1" parent="1">
          <mxGeometry x="540" y="50" width="120" height="40" as="geometry" />
        </mxCell>
        <mxCell id="92T0nFWncrSIPCJ4tK7a-4" value="1" style="rounded=0;whiteSpace=wrap;html=1;fontStyle=1" vertex="1" parent="1">
          <mxGeometry x="540" y="170" width="120" height="40" as="geometry" />
        </mxCell>
        <mxCell id="92T0nFWncrSIPCJ4tK7a-5" value="0" style="rounded=0;whiteSpace=wrap;html=1;fontStyle=1" vertex="1" parent="1">
          <mxGeometry x="540" y="130" width="120" height="40" as="geometry" />
        </mxCell>
        <mxCell id="92T0nFWncrSIPCJ4tK7a-6" value="" style="endArrow=classic;html=1;rounded=0;entryX=0;entryY=0.5;entryDx=0;entryDy=0;" edge="1" parent="1" target="92T0nFWncrSIPCJ4tK7a-1">
          <mxGeometry width="50" height="50" relative="1" as="geometry">
            <mxPoint x="450" y="110" as="sourcePoint" />
            <mxPoint x="440" y="270" as="targetPoint" />
          </mxGeometry>
        </mxCell>
        <mxCell id="92T0nFWncrSIPCJ4tK7a-7" value="" style="endArrow=classic;html=1;rounded=0;entryX=0;entryY=0.5;entryDx=0;entryDy=0;" edge="1" parent="1">
          <mxGeometry width="50" height="50" relative="1" as="geometry">
            <mxPoint x="450" y="140" as="sourcePoint" />
            <mxPoint x="540" y="140" as="targetPoint" />
          </mxGeometry>
        </mxCell>
        <mxCell id="92T0nFWncrSIPCJ4tK7a-8" value="" style="endArrow=classic;html=1;rounded=0;entryX=0;entryY=0.5;entryDx=0;entryDy=0;" edge="1" parent="1">
          <mxGeometry width="50" height="50" relative="1" as="geometry">
            <mxPoint x="660" y="129" as="sourcePoint" />
            <mxPoint x="750" y="129" as="targetPoint" />
          </mxGeometry>
        </mxCell>
        <mxCell id="92T0nFWncrSIPCJ4tK7a-9" value="A" style="text;html=1;strokeColor=none;fillColor=none;align=center;verticalAlign=middle;whiteSpace=wrap;rounded=0;" vertex="1" parent="1">
          <mxGeometry x="380" y="95" width="60" height="30" as="geometry" />
        </mxCell>
        <mxCell id="92T0nFWncrSIPCJ4tK7a-10" value="B" style="text;html=1;strokeColor=none;fillColor=none;align=center;verticalAlign=middle;whiteSpace=wrap;rounded=0;" vertex="1" parent="1">
          <mxGeometry x="380" y="130" width="60" height="30" as="geometry" />
        </mxCell>
        <mxCell id="92T0nFWncrSIPCJ4tK7a-11" value="1" style="rounded=0;whiteSpace=wrap;html=1;fontStyle=1" vertex="1" parent="1">
          <mxGeometry x="540" y="290" width="120" height="40" as="geometry" />
        </mxCell>
        <mxCell id="92T0nFWncrSIPCJ4tK7a-12" value="0" style="rounded=0;whiteSpace=wrap;html=1;fontStyle=1" vertex="1" parent="1">
          <mxGeometry x="540" y="250" width="120" height="40" as="geometry" />
        </mxCell>
        <mxCell id="92T0nFWncrSIPCJ4tK7a-13" value="1" style="rounded=0;whiteSpace=wrap;html=1;fontStyle=1" vertex="1" parent="1">
          <mxGeometry x="540" y="370" width="120" height="40" as="geometry" />
        </mxCell>
        <mxCell id="92T0nFWncrSIPCJ4tK7a-14" value="1" style="rounded=0;whiteSpace=wrap;html=1;fontStyle=1" vertex="1" parent="1">
          <mxGeometry x="540" y="330" width="120" height="40" as="geometry" />
        </mxCell>
        <mxCell id="92T0nFWncrSIPCJ4tK7a-15" value="" style="endArrow=classic;html=1;rounded=0;entryX=0;entryY=0.5;entryDx=0;entryDy=0;" edge="1" parent="1" target="92T0nFWncrSIPCJ4tK7a-11">
          <mxGeometry width="50" height="50" relative="1" as="geometry">
            <mxPoint x="450" y="310" as="sourcePoint" />
            <mxPoint x="440" y="470" as="targetPoint" />
          </mxGeometry>
        </mxCell>
        <mxCell id="92T0nFWncrSIPCJ4tK7a-16" value="" style="endArrow=classic;html=1;rounded=0;entryX=0;entryY=0.5;entryDx=0;entryDy=0;" edge="1" parent="1">
          <mxGeometry width="50" height="50" relative="1" as="geometry">
            <mxPoint x="450" y="340" as="sourcePoint" />
            <mxPoint x="540" y="340" as="targetPoint" />
          </mxGeometry>
        </mxCell>
        <mxCell id="92T0nFWncrSIPCJ4tK7a-17" value="" style="endArrow=classic;html=1;rounded=0;entryX=0;entryY=0.5;entryDx=0;entryDy=0;" edge="1" parent="1">
          <mxGeometry width="50" height="50" relative="1" as="geometry">
            <mxPoint x="660" y="329" as="sourcePoint" />
            <mxPoint x="750" y="329" as="targetPoint" />
          </mxGeometry>
        </mxCell>
        <mxCell id="92T0nFWncrSIPCJ4tK7a-18" value="A" style="text;html=1;strokeColor=none;fillColor=none;align=center;verticalAlign=middle;whiteSpace=wrap;rounded=0;" vertex="1" parent="1">
          <mxGeometry x="380" y="300" width="60" height="30" as="geometry" />
        </mxCell>
        <mxCell id="92T0nFWncrSIPCJ4tK7a-19" value="B" style="text;html=1;strokeColor=none;fillColor=none;align=center;verticalAlign=middle;whiteSpace=wrap;rounded=0;" vertex="1" parent="1">
          <mxGeometry x="380" y="335" width="60" height="30" as="geometry" />
        </mxCell>
        <mxCell id="92T0nFWncrSIPCJ4tK7a-20" value="1" style="rounded=0;whiteSpace=wrap;html=1;fontStyle=1" vertex="1" parent="1">
          <mxGeometry x="540" y="500" width="120" height="40" as="geometry" />
        </mxCell>
        <mxCell id="92T0nFWncrSIPCJ4tK7a-21" value="0" style="rounded=0;whiteSpace=wrap;html=1;fontStyle=1" vertex="1" parent="1">
          <mxGeometry x="540" y="460" width="120" height="40" as="geometry" />
        </mxCell>
        <mxCell id="92T0nFWncrSIPCJ4tK7a-22" value="0" style="rounded=0;whiteSpace=wrap;html=1;fontStyle=1" vertex="1" parent="1">
          <mxGeometry x="540" y="580" width="120" height="40" as="geometry" />
        </mxCell>
        <mxCell id="92T0nFWncrSIPCJ4tK7a-23" value="1" style="rounded=0;whiteSpace=wrap;html=1;fontStyle=1" vertex="1" parent="1">
          <mxGeometry x="540" y="540" width="120" height="40" as="geometry" />
        </mxCell>
        <mxCell id="92T0nFWncrSIPCJ4tK7a-24" value="" style="endArrow=classic;html=1;rounded=0;entryX=0;entryY=0.5;entryDx=0;entryDy=0;" edge="1" parent="1" target="92T0nFWncrSIPCJ4tK7a-20">
          <mxGeometry width="50" height="50" relative="1" as="geometry">
            <mxPoint x="450" y="520" as="sourcePoint" />
            <mxPoint x="440" y="680" as="targetPoint" />
          </mxGeometry>
        </mxCell>
        <mxCell id="92T0nFWncrSIPCJ4tK7a-25" value="" style="endArrow=classic;html=1;rounded=0;entryX=0;entryY=0.5;entryDx=0;entryDy=0;" edge="1" parent="1">
          <mxGeometry width="50" height="50" relative="1" as="geometry">
            <mxPoint x="450" y="550" as="sourcePoint" />
            <mxPoint x="540" y="550" as="targetPoint" />
          </mxGeometry>
        </mxCell>
        <mxCell id="92T0nFWncrSIPCJ4tK7a-26" value="" style="endArrow=classic;html=1;rounded=0;entryX=0;entryY=0.5;entryDx=0;entryDy=0;" edge="1" parent="1">
          <mxGeometry width="50" height="50" relative="1" as="geometry">
            <mxPoint x="660" y="539" as="sourcePoint" />
            <mxPoint x="750" y="539" as="targetPoint" />
          </mxGeometry>
        </mxCell>
        <mxCell id="92T0nFWncrSIPCJ4tK7a-27" value="A" style="text;html=1;strokeColor=none;fillColor=none;align=center;verticalAlign=middle;whiteSpace=wrap;rounded=0;" vertex="1" parent="1">
          <mxGeometry x="380" y="510" width="60" height="30" as="geometry" />
        </mxCell>
        <mxCell id="92T0nFWncrSIPCJ4tK7a-28" value="B" style="text;html=1;strokeColor=none;fillColor=none;align=center;verticalAlign=middle;whiteSpace=wrap;rounded=0;" vertex="1" parent="1">
          <mxGeometry x="380" y="545" width="60" height="30" as="geometry" />
        </mxCell>
        <mxCell id="92T0nFWncrSIPCJ4tK7a-29" value="0" style="rounded=0;whiteSpace=wrap;html=1;fontStyle=1" vertex="1" parent="1">
          <mxGeometry x="540" y="700" width="120" height="40" as="geometry" />
        </mxCell>
        <mxCell id="92T0nFWncrSIPCJ4tK7a-30" value="0" style="rounded=0;whiteSpace=wrap;html=1;fontStyle=1" vertex="1" parent="1">
          <mxGeometry x="540" y="660" width="120" height="40" as="geometry" />
        </mxCell>
        <mxCell id="92T0nFWncrSIPCJ4tK7a-31" value="0" style="rounded=0;whiteSpace=wrap;html=1;fontStyle=1" vertex="1" parent="1">
          <mxGeometry x="540" y="780" width="120" height="40" as="geometry" />
        </mxCell>
        <mxCell id="92T0nFWncrSIPCJ4tK7a-32" value="1" style="rounded=0;whiteSpace=wrap;html=1;fontStyle=1" vertex="1" parent="1">
          <mxGeometry x="540" y="740" width="120" height="40" as="geometry" />
        </mxCell>
        <mxCell id="92T0nFWncrSIPCJ4tK7a-33" value="" style="endArrow=classic;html=1;rounded=0;entryX=0;entryY=0.5;entryDx=0;entryDy=0;" edge="1" parent="1" target="92T0nFWncrSIPCJ4tK7a-29">
          <mxGeometry width="50" height="50" relative="1" as="geometry">
            <mxPoint x="450" y="720" as="sourcePoint" />
            <mxPoint x="440" y="880" as="targetPoint" />
          </mxGeometry>
        </mxCell>
        <mxCell id="92T0nFWncrSIPCJ4tK7a-34" value="" style="endArrow=classic;html=1;rounded=0;entryX=0;entryY=0.5;entryDx=0;entryDy=0;" edge="1" parent="1">
          <mxGeometry width="50" height="50" relative="1" as="geometry">
            <mxPoint x="450" y="750" as="sourcePoint" />
            <mxPoint x="540" y="750" as="targetPoint" />
          </mxGeometry>
        </mxCell>
        <mxCell id="92T0nFWncrSIPCJ4tK7a-35" value="" style="endArrow=classic;html=1;rounded=0;entryX=0;entryY=0.5;entryDx=0;entryDy=0;" edge="1" parent="1">
          <mxGeometry width="50" height="50" relative="1" as="geometry">
            <mxPoint x="660" y="739" as="sourcePoint" />
            <mxPoint x="750" y="739" as="targetPoint" />
          </mxGeometry>
        </mxCell>
        <mxCell id="92T0nFWncrSIPCJ4tK7a-36" value="A" style="text;html=1;strokeColor=none;fillColor=none;align=center;verticalAlign=middle;whiteSpace=wrap;rounded=0;" vertex="1" parent="1">
          <mxGeometry x="380" y="710" width="60" height="30" as="geometry" />
        </mxCell>
        <mxCell id="92T0nFWncrSIPCJ4tK7a-37" value="B" style="text;html=1;strokeColor=none;fillColor=none;align=center;verticalAlign=middle;whiteSpace=wrap;rounded=0;" vertex="1" parent="1">
          <mxGeometry x="380" y="745" width="60" height="30" as="geometry" />
        </mxCell>
        <mxCell id="92T0nFWncrSIPCJ4tK7a-38" value="AND" style="text;html=1;strokeColor=none;fillColor=none;align=center;verticalAlign=middle;whiteSpace=wrap;rounded=0;" vertex="1" parent="1">
          <mxGeometry x="700" y="146" width="60" height="30" as="geometry" />
        </mxCell>
        <mxCell id="92T0nFWncrSIPCJ4tK7a-39" value="OR" style="text;html=1;strokeColor=none;fillColor=none;align=center;verticalAlign=middle;whiteSpace=wrap;rounded=0;" vertex="1" parent="1">
          <mxGeometry x="710" y="350" width="60" height="30" as="geometry" />
        </mxCell>
        <mxCell id="92T0nFWncrSIPCJ4tK7a-40" value="XOR" style="text;html=1;strokeColor=none;fillColor=none;align=center;verticalAlign=middle;whiteSpace=wrap;rounded=0;" vertex="1" parent="1">
          <mxGeometry x="710" y="580" width="60" height="30" as="geometry" />
        </mxCell>
        <mxCell id="92T0nFWncrSIPCJ4tK7a-41" value="Custom" style="text;html=1;strokeColor=none;fillColor=none;align=center;verticalAlign=middle;whiteSpace=wrap;rounded=0;" vertex="1" parent="1">
          <mxGeometry x="710" y="800" width="60" height="30" as="geometry" />
        </mxCell>
      </root>
    </mxGraphModel>
  </diagram>
  <diagram id="Pkfx79Jv-5OLmwgepSMW" name="Page-2">
    <mxGraphModel dx="1877" dy="566" grid="1" gridSize="10" guides="1" tooltips="1" connect="1" arrows="1" fold="1" page="1" pageScale="1" pageWidth="827" pageHeight="1169" math="0" shadow="0">
      <root>
        <mxCell id="0" />
        <mxCell id="1" parent="0" />
        <mxCell id="CTGF1NchhloP1y6NjX3o-1" value="" style="shape=image;verticalLabelPosition=bottom;labelBackgroundColor=default;verticalAlign=top;aspect=fixed;imageAspect=0;image=https://theorycircuit.com/wp-content/uploads/2018/07/full-adder-truth-table.png;" vertex="1" parent="1">
          <mxGeometry x="30" y="20" width="264.71" height="313" as="geometry" />
        </mxCell>
        <mxCell id="OHTdjTOBGdx-9ytKdn2p-1" value="1" style="rounded=0;whiteSpace=wrap;html=1;fontStyle=1" vertex="1" parent="1">
          <mxGeometry x="540" y="90" width="120" height="40" as="geometry" />
        </mxCell>
        <mxCell id="OHTdjTOBGdx-9ytKdn2p-2" value="0" style="rounded=0;whiteSpace=wrap;html=1;fontStyle=1" vertex="1" parent="1">
          <mxGeometry x="540" y="55" width="120" height="40" as="geometry" />
        </mxCell>
        <mxCell id="OHTdjTOBGdx-9ytKdn2p-3" value="0" style="rounded=0;whiteSpace=wrap;html=1;fontStyle=1" vertex="1" parent="1">
          <mxGeometry x="540" y="170" width="120" height="40" as="geometry" />
        </mxCell>
        <mxCell id="OHTdjTOBGdx-9ytKdn2p-4" value="1" style="rounded=0;whiteSpace=wrap;html=1;fontStyle=1" vertex="1" parent="1">
          <mxGeometry x="540" y="130" width="120" height="40" as="geometry" />
        </mxCell>
        <mxCell id="OHTdjTOBGdx-9ytKdn2p-5" value="" style="endArrow=classic;html=1;rounded=0;entryX=0;entryY=0.5;entryDx=0;entryDy=0;" edge="1" parent="1" target="OHTdjTOBGdx-9ytKdn2p-1">
          <mxGeometry width="50" height="50" relative="1" as="geometry">
            <mxPoint x="450" y="110" as="sourcePoint" />
            <mxPoint x="440" y="270" as="targetPoint" />
          </mxGeometry>
        </mxCell>
        <mxCell id="OHTdjTOBGdx-9ytKdn2p-6" value="" style="endArrow=classic;html=1;rounded=0;entryX=0;entryY=0.5;entryDx=0;entryDy=0;" edge="1" parent="1">
          <mxGeometry width="50" height="50" relative="1" as="geometry">
            <mxPoint x="450" y="140" as="sourcePoint" />
            <mxPoint x="540" y="140" as="targetPoint" />
          </mxGeometry>
        </mxCell>
        <mxCell id="OHTdjTOBGdx-9ytKdn2p-7" value="" style="endArrow=classic;html=1;rounded=0;entryX=0;entryY=0.5;entryDx=0;entryDy=0;" edge="1" parent="1">
          <mxGeometry width="50" height="50" relative="1" as="geometry">
            <mxPoint x="660" y="129" as="sourcePoint" />
            <mxPoint x="750" y="129" as="targetPoint" />
          </mxGeometry>
        </mxCell>
        <mxCell id="OHTdjTOBGdx-9ytKdn2p-8" value="A" style="text;html=1;strokeColor=none;fillColor=none;align=center;verticalAlign=middle;whiteSpace=wrap;rounded=0;" vertex="1" parent="1">
          <mxGeometry x="380" y="95" width="60" height="30" as="geometry" />
        </mxCell>
        <mxCell id="OHTdjTOBGdx-9ytKdn2p-9" value="B" style="text;html=1;strokeColor=none;fillColor=none;align=center;verticalAlign=middle;whiteSpace=wrap;rounded=0;" vertex="1" parent="1">
          <mxGeometry x="380" y="130" width="60" height="30" as="geometry" />
        </mxCell>
        <mxCell id="OHTdjTOBGdx-9ytKdn2p-10" value="0" style="rounded=0;whiteSpace=wrap;html=1;fontStyle=1" vertex="1" parent="1">
          <mxGeometry x="540" y="250" width="120" height="40" as="geometry" />
        </mxCell>
        <mxCell id="OHTdjTOBGdx-9ytKdn2p-11" value="1" style="rounded=0;whiteSpace=wrap;html=1;fontStyle=1" vertex="1" parent="1">
          <mxGeometry x="540" y="210" width="120" height="40" as="geometry" />
        </mxCell>
        <mxCell id="OHTdjTOBGdx-9ytKdn2p-12" value="1" style="rounded=0;whiteSpace=wrap;html=1;fontStyle=1" vertex="1" parent="1">
          <mxGeometry x="540" y="330" width="120" height="40" as="geometry" />
        </mxCell>
        <mxCell id="OHTdjTOBGdx-9ytKdn2p-13" value="0" style="rounded=0;whiteSpace=wrap;html=1;fontStyle=1" vertex="1" parent="1">
          <mxGeometry x="540" y="290" width="120" height="40" as="geometry" />
        </mxCell>
        <mxCell id="OHTdjTOBGdx-9ytKdn2p-14" value="" style="endArrow=classic;html=1;rounded=0;entryX=0;entryY=0.5;entryDx=0;entryDy=0;" edge="1" parent="1">
          <mxGeometry width="50" height="50" relative="1" as="geometry">
            <mxPoint x="450" y="170" as="sourcePoint" />
            <mxPoint x="540" y="170" as="targetPoint" />
          </mxGeometry>
        </mxCell>
        <mxCell id="OHTdjTOBGdx-9ytKdn2p-18" value="Cin" style="text;html=1;strokeColor=none;fillColor=none;align=center;verticalAlign=middle;whiteSpace=wrap;rounded=0;" vertex="1" parent="1">
          <mxGeometry x="380" y="160" width="60" height="30" as="geometry" />
        </mxCell>
        <mxCell id="OHTdjTOBGdx-9ytKdn2p-19" value="SUM" style="text;html=1;strokeColor=none;fillColor=none;align=center;verticalAlign=middle;whiteSpace=wrap;rounded=0;" vertex="1" parent="1">
          <mxGeometry x="700" y="146" width="60" height="30" as="geometry" />
        </mxCell>
        <mxCell id="OHTdjTOBGdx-9ytKdn2p-22" value="0" style="rounded=0;whiteSpace=wrap;html=1;fontStyle=1" vertex="1" parent="1">
          <mxGeometry x="540" y="440" width="120" height="40" as="geometry" />
        </mxCell>
        <mxCell id="OHTdjTOBGdx-9ytKdn2p-23" value="0" style="rounded=0;whiteSpace=wrap;html=1;fontStyle=1" vertex="1" parent="1">
          <mxGeometry x="540" y="400" width="120" height="40" as="geometry" />
        </mxCell>
        <mxCell id="OHTdjTOBGdx-9ytKdn2p-24" value="1" style="rounded=0;whiteSpace=wrap;html=1;fontStyle=1" vertex="1" parent="1">
          <mxGeometry x="540" y="520" width="120" height="40" as="geometry" />
        </mxCell>
        <mxCell id="OHTdjTOBGdx-9ytKdn2p-25" value="0" style="rounded=0;whiteSpace=wrap;html=1;fontStyle=1" vertex="1" parent="1">
          <mxGeometry x="540" y="480" width="120" height="40" as="geometry" />
        </mxCell>
        <mxCell id="OHTdjTOBGdx-9ytKdn2p-26" value="" style="endArrow=classic;html=1;rounded=0;entryX=0;entryY=0.5;entryDx=0;entryDy=0;" edge="1" parent="1" target="OHTdjTOBGdx-9ytKdn2p-22">
          <mxGeometry width="50" height="50" relative="1" as="geometry">
            <mxPoint x="450" y="460" as="sourcePoint" />
            <mxPoint x="440" y="620" as="targetPoint" />
          </mxGeometry>
        </mxCell>
        <mxCell id="OHTdjTOBGdx-9ytKdn2p-27" value="" style="endArrow=classic;html=1;rounded=0;entryX=0;entryY=0.5;entryDx=0;entryDy=0;" edge="1" parent="1">
          <mxGeometry width="50" height="50" relative="1" as="geometry">
            <mxPoint x="450" y="490" as="sourcePoint" />
            <mxPoint x="540" y="490" as="targetPoint" />
          </mxGeometry>
        </mxCell>
        <mxCell id="OHTdjTOBGdx-9ytKdn2p-28" value="" style="endArrow=classic;html=1;rounded=0;entryX=0;entryY=0.5;entryDx=0;entryDy=0;" edge="1" parent="1">
          <mxGeometry width="50" height="50" relative="1" as="geometry">
            <mxPoint x="660" y="479" as="sourcePoint" />
            <mxPoint x="750" y="479" as="targetPoint" />
          </mxGeometry>
        </mxCell>
        <mxCell id="OHTdjTOBGdx-9ytKdn2p-29" value="A" style="text;html=1;strokeColor=none;fillColor=none;align=center;verticalAlign=middle;whiteSpace=wrap;rounded=0;" vertex="1" parent="1">
          <mxGeometry x="380" y="445" width="60" height="30" as="geometry" />
        </mxCell>
        <mxCell id="OHTdjTOBGdx-9ytKdn2p-30" value="B" style="text;html=1;strokeColor=none;fillColor=none;align=center;verticalAlign=middle;whiteSpace=wrap;rounded=0;" vertex="1" parent="1">
          <mxGeometry x="380" y="480" width="60" height="30" as="geometry" />
        </mxCell>
        <mxCell id="OHTdjTOBGdx-9ytKdn2p-31" value="1" style="rounded=0;whiteSpace=wrap;html=1;fontStyle=1" vertex="1" parent="1">
          <mxGeometry x="540" y="600" width="120" height="40" as="geometry" />
        </mxCell>
        <mxCell id="OHTdjTOBGdx-9ytKdn2p-32" value="0" style="rounded=0;whiteSpace=wrap;html=1;fontStyle=1" vertex="1" parent="1">
          <mxGeometry x="540" y="560" width="120" height="40" as="geometry" />
        </mxCell>
        <mxCell id="OHTdjTOBGdx-9ytKdn2p-33" value="1" style="rounded=0;whiteSpace=wrap;html=1;fontStyle=1" vertex="1" parent="1">
          <mxGeometry x="540" y="680" width="120" height="40" as="geometry" />
        </mxCell>
        <mxCell id="OHTdjTOBGdx-9ytKdn2p-34" value="1" style="rounded=0;whiteSpace=wrap;html=1;fontStyle=1" vertex="1" parent="1">
          <mxGeometry x="540" y="640" width="120" height="40" as="geometry" />
        </mxCell>
        <mxCell id="OHTdjTOBGdx-9ytKdn2p-35" value="" style="endArrow=classic;html=1;rounded=0;entryX=0;entryY=0.5;entryDx=0;entryDy=0;" edge="1" parent="1">
          <mxGeometry width="50" height="50" relative="1" as="geometry">
            <mxPoint x="450" y="520" as="sourcePoint" />
            <mxPoint x="540" y="520" as="targetPoint" />
          </mxGeometry>
        </mxCell>
        <mxCell id="OHTdjTOBGdx-9ytKdn2p-36" value="Cin" style="text;html=1;strokeColor=none;fillColor=none;align=center;verticalAlign=middle;whiteSpace=wrap;rounded=0;" vertex="1" parent="1">
          <mxGeometry x="380" y="510" width="60" height="30" as="geometry" />
        </mxCell>
        <mxCell id="OHTdjTOBGdx-9ytKdn2p-37" value="Carry" style="text;html=1;strokeColor=none;fillColor=none;align=center;verticalAlign=middle;whiteSpace=wrap;rounded=0;" vertex="1" parent="1">
          <mxGeometry x="700" y="496" width="60" height="30" as="geometry" />
        </mxCell>
        <mxCell id="E79m0-CPrFOpGQxhKt4M-17" value="1" style="rounded=0;whiteSpace=wrap;html=1;fontStyle=1" vertex="1" parent="1">
          <mxGeometry x="120" y="377.5" width="120" height="40" as="geometry" />
        </mxCell>
        <mxCell id="E79m0-CPrFOpGQxhKt4M-18" value="0" style="rounded=0;whiteSpace=wrap;html=1;fontStyle=1" vertex="1" parent="1">
          <mxGeometry x="120" y="342.5" width="120" height="40" as="geometry" />
        </mxCell>
        <mxCell id="E79m0-CPrFOpGQxhKt4M-19" value="0" style="rounded=0;whiteSpace=wrap;html=1;fontStyle=1" vertex="1" parent="1">
          <mxGeometry x="120" y="457.5" width="120" height="40" as="geometry" />
        </mxCell>
        <mxCell id="E79m0-CPrFOpGQxhKt4M-20" value="1" style="rounded=0;whiteSpace=wrap;html=1;fontStyle=1" vertex="1" parent="1">
          <mxGeometry x="120" y="417.5" width="120" height="40" as="geometry" />
        </mxCell>
        <mxCell id="E79m0-CPrFOpGQxhKt4M-21" value="0" style="rounded=0;whiteSpace=wrap;html=1;fontStyle=1" vertex="1" parent="1">
          <mxGeometry x="120" y="537.5" width="120" height="40" as="geometry" />
        </mxCell>
        <mxCell id="E79m0-CPrFOpGQxhKt4M-22" value="1" style="rounded=0;whiteSpace=wrap;html=1;fontStyle=1" vertex="1" parent="1">
          <mxGeometry x="120" y="497.5" width="120" height="40" as="geometry" />
        </mxCell>
        <mxCell id="E79m0-CPrFOpGQxhKt4M-23" value="1" style="rounded=0;whiteSpace=wrap;html=1;fontStyle=1" vertex="1" parent="1">
          <mxGeometry x="120" y="617.5" width="120" height="40" as="geometry" />
        </mxCell>
        <mxCell id="E79m0-CPrFOpGQxhKt4M-24" value="0" style="rounded=0;whiteSpace=wrap;html=1;fontStyle=1" vertex="1" parent="1">
          <mxGeometry x="120" y="577.5" width="120" height="40" as="geometry" />
        </mxCell>
        <mxCell id="E79m0-CPrFOpGQxhKt4M-25" value="" style="rounded=0;whiteSpace=wrap;html=1;fontStyle=1" vertex="1" parent="1">
          <mxGeometry x="120" y="692.5" width="120" height="40" as="geometry" />
        </mxCell>
        <mxCell id="E79m0-CPrFOpGQxhKt4M-26" value="" style="rounded=0;whiteSpace=wrap;html=1;fontStyle=1" vertex="1" parent="1">
          <mxGeometry x="120" y="657.5" width="120" height="40" as="geometry" />
        </mxCell>
        <mxCell id="E79m0-CPrFOpGQxhKt4M-27" value="" style="rounded=0;whiteSpace=wrap;html=1;fontStyle=1" vertex="1" parent="1">
          <mxGeometry x="120" y="772.5" width="120" height="40" as="geometry" />
        </mxCell>
        <mxCell id="E79m0-CPrFOpGQxhKt4M-28" value="" style="rounded=0;whiteSpace=wrap;html=1;fontStyle=1" vertex="1" parent="1">
          <mxGeometry x="120" y="732.5" width="120" height="40" as="geometry" />
        </mxCell>
        <mxCell id="E79m0-CPrFOpGQxhKt4M-29" value="" style="rounded=0;whiteSpace=wrap;html=1;fontStyle=1" vertex="1" parent="1">
          <mxGeometry x="120" y="852.5" width="120" height="40" as="geometry" />
        </mxCell>
        <mxCell id="E79m0-CPrFOpGQxhKt4M-30" value="" style="rounded=0;whiteSpace=wrap;html=1;fontStyle=1" vertex="1" parent="1">
          <mxGeometry x="120" y="812.5" width="120" height="40" as="geometry" />
        </mxCell>
        <mxCell id="E79m0-CPrFOpGQxhKt4M-31" value="" style="rounded=0;whiteSpace=wrap;html=1;fontStyle=1" vertex="1" parent="1">
          <mxGeometry x="120" y="932.5" width="120" height="40" as="geometry" />
        </mxCell>
        <mxCell id="E79m0-CPrFOpGQxhKt4M-32" value="" style="rounded=0;whiteSpace=wrap;html=1;fontStyle=1" vertex="1" parent="1">
          <mxGeometry x="120" y="892.5" width="120" height="40" as="geometry" />
        </mxCell>
        <mxCell id="E79m0-CPrFOpGQxhKt4M-33" value="" style="endArrow=classic;html=1;rounded=0;entryX=0;entryY=0.5;entryDx=0;entryDy=0;" edge="1" parent="1">
          <mxGeometry width="50" height="50" relative="1" as="geometry">
            <mxPoint x="30" y="605" as="sourcePoint" />
            <mxPoint x="120" y="605" as="targetPoint" />
          </mxGeometry>
        </mxCell>
        <mxCell id="E79m0-CPrFOpGQxhKt4M-34" value="" style="endArrow=classic;html=1;rounded=0;entryX=0;entryY=0.5;entryDx=0;entryDy=0;" edge="1" parent="1">
          <mxGeometry width="50" height="50" relative="1" as="geometry">
            <mxPoint x="30" y="635" as="sourcePoint" />
            <mxPoint x="120" y="635" as="targetPoint" />
          </mxGeometry>
        </mxCell>
        <mxCell id="E79m0-CPrFOpGQxhKt4M-35" value="A" style="text;html=1;strokeColor=none;fillColor=none;align=center;verticalAlign=middle;whiteSpace=wrap;rounded=0;" vertex="1" parent="1">
          <mxGeometry x="-40" y="590" width="60" height="30" as="geometry" />
        </mxCell>
        <mxCell id="E79m0-CPrFOpGQxhKt4M-36" value="B" style="text;html=1;strokeColor=none;fillColor=none;align=center;verticalAlign=middle;whiteSpace=wrap;rounded=0;" vertex="1" parent="1">
          <mxGeometry x="-40" y="625" width="60" height="30" as="geometry" />
        </mxCell>
        <mxCell id="E79m0-CPrFOpGQxhKt4M-37" value="" style="endArrow=classic;html=1;rounded=0;entryX=0;entryY=0.5;entryDx=0;entryDy=0;" edge="1" parent="1">
          <mxGeometry width="50" height="50" relative="1" as="geometry">
            <mxPoint x="30" y="665" as="sourcePoint" />
            <mxPoint x="120" y="665" as="targetPoint" />
          </mxGeometry>
        </mxCell>
        <mxCell id="E79m0-CPrFOpGQxhKt4M-38" value="Cin" style="text;html=1;strokeColor=none;fillColor=none;align=center;verticalAlign=middle;whiteSpace=wrap;rounded=0;" vertex="1" parent="1">
          <mxGeometry x="-40" y="655" width="60" height="30" as="geometry" />
        </mxCell>
        <mxCell id="E79m0-CPrFOpGQxhKt4M-39" value="" style="endArrow=classic;html=1;rounded=0;entryX=0;entryY=0.5;entryDx=0;entryDy=0;" edge="1" parent="1">
          <mxGeometry width="50" height="50" relative="1" as="geometry">
            <mxPoint x="30" y="699.5" as="sourcePoint" />
            <mxPoint x="120" y="699.5" as="targetPoint" />
          </mxGeometry>
        </mxCell>
        <mxCell id="E79m0-CPrFOpGQxhKt4M-40" value="0" style="text;html=1;strokeColor=none;fillColor=none;align=center;verticalAlign=middle;whiteSpace=wrap;rounded=0;" vertex="1" parent="1">
          <mxGeometry x="-40" y="692.5" width="60" height="30" as="geometry" />
        </mxCell>
        <mxCell id="E79m0-CPrFOpGQxhKt4M-41" value="" style="endArrow=classic;html=1;rounded=0;entryX=0;entryY=0.5;entryDx=0;entryDy=0;" edge="1" parent="1">
          <mxGeometry width="50" height="50" relative="1" as="geometry">
            <mxPoint x="240" y="636.5" as="sourcePoint" />
            <mxPoint x="330" y="636.5" as="targetPoint" />
          </mxGeometry>
        </mxCell>
        <mxCell id="E79m0-CPrFOpGQxhKt4M-42" value="SUM" style="text;html=1;strokeColor=none;fillColor=none;align=center;verticalAlign=middle;whiteSpace=wrap;rounded=0;" vertex="1" parent="1">
          <mxGeometry x="280" y="653.5" width="60" height="30" as="geometry" />
        </mxCell>
      </root>
    </mxGraphModel>
  </diagram>
  <diagram id="03W4GI8VWivE2QjSoFm6" name="Page-3">
    <mxGraphModel dx="1050" dy="566" grid="1" gridSize="10" guides="1" tooltips="1" connect="1" arrows="1" fold="1" page="1" pageScale="1" pageWidth="827" pageHeight="1169" math="0" shadow="0">
      <root>
        <mxCell id="0" />
        <mxCell id="1" parent="0" />
        <mxCell id="HZRet4DqUWNBLUMUB2ez-1" value="" style="shape=image;verticalLabelPosition=bottom;labelBackgroundColor=default;verticalAlign=top;aspect=fixed;imageAspect=0;image=https://theorycircuit.com/wp-content/uploads/2018/07/full-adder-truth-table.png;" vertex="1" parent="1">
          <mxGeometry x="530" y="30" width="264.71" height="313" as="geometry" />
        </mxCell>
        <mxCell id="6Yz6xSNR_-sx_KhWwHxL-23" style="edgeStyle=orthogonalEdgeStyle;rounded=0;orthogonalLoop=1;jettySize=auto;html=1;exitX=1;exitY=0.5;exitDx=0;exitDy=0;entryX=0.25;entryY=1;entryDx=0;entryDy=0;" edge="1" parent="1" source="6Yz6xSNR_-sx_KhWwHxL-1" target="6Yz6xSNR_-sx_KhWwHxL-22">
          <mxGeometry relative="1" as="geometry" />
        </mxCell>
        <mxCell id="6Yz6xSNR_-sx_KhWwHxL-1" value="1" style="rounded=0;whiteSpace=wrap;html=1;fontStyle=1" vertex="1" parent="1">
          <mxGeometry x="200" y="280" width="120" height="40" as="geometry" />
        </mxCell>
        <mxCell id="6Yz6xSNR_-sx_KhWwHxL-2" value="0" style="rounded=0;whiteSpace=wrap;html=1;fontStyle=1" vertex="1" parent="1">
          <mxGeometry x="200" y="240" width="120" height="40" as="geometry" />
        </mxCell>
        <mxCell id="6Yz6xSNR_-sx_KhWwHxL-3" value="0" style="rounded=0;whiteSpace=wrap;html=1;fontStyle=1" vertex="1" parent="1">
          <mxGeometry x="200" y="360" width="120" height="40" as="geometry" />
        </mxCell>
        <mxCell id="6Yz6xSNR_-sx_KhWwHxL-4" value="1" style="rounded=0;whiteSpace=wrap;html=1;fontStyle=1;fillColor=#fff2cc;strokeColor=#d6b656;" vertex="1" parent="1">
          <mxGeometry x="200" y="320" width="120" height="40" as="geometry" />
        </mxCell>
        <mxCell id="6Yz6xSNR_-sx_KhWwHxL-5" value="" style="endArrow=classic;html=1;rounded=0;entryX=0;entryY=0.5;entryDx=0;entryDy=0;" edge="1" parent="1" target="6Yz6xSNR_-sx_KhWwHxL-1">
          <mxGeometry width="50" height="50" relative="1" as="geometry">
            <mxPoint x="110" y="300" as="sourcePoint" />
            <mxPoint x="100" y="460" as="targetPoint" />
          </mxGeometry>
        </mxCell>
        <mxCell id="6Yz6xSNR_-sx_KhWwHxL-6" value="" style="endArrow=classic;html=1;rounded=0;entryX=0;entryY=0.5;entryDx=0;entryDy=0;" edge="1" parent="1">
          <mxGeometry width="50" height="50" relative="1" as="geometry">
            <mxPoint x="110" y="330" as="sourcePoint" />
            <mxPoint x="200" y="330" as="targetPoint" />
          </mxGeometry>
        </mxCell>
        <mxCell id="6Yz6xSNR_-sx_KhWwHxL-8" value="B" style="text;html=1;strokeColor=none;fillColor=none;align=center;verticalAlign=middle;whiteSpace=wrap;rounded=0;" vertex="1" parent="1">
          <mxGeometry x="40" y="285" width="60" height="30" as="geometry" />
        </mxCell>
        <mxCell id="6Yz6xSNR_-sx_KhWwHxL-9" value="Cin" style="text;html=1;strokeColor=none;fillColor=none;align=center;verticalAlign=middle;whiteSpace=wrap;rounded=0;" vertex="1" parent="1">
          <mxGeometry x="40" y="320" width="60" height="30" as="geometry" />
        </mxCell>
        <mxCell id="6Yz6xSNR_-sx_KhWwHxL-10" value="0" style="rounded=0;whiteSpace=wrap;html=1;fontStyle=1" vertex="1" parent="1">
          <mxGeometry x="200" y="480" width="120" height="40" as="geometry" />
        </mxCell>
        <mxCell id="6Yz6xSNR_-sx_KhWwHxL-11" value="1" style="rounded=0;whiteSpace=wrap;html=1;fontStyle=1" vertex="1" parent="1">
          <mxGeometry x="200" y="440" width="120" height="40" as="geometry" />
        </mxCell>
        <mxCell id="6Yz6xSNR_-sx_KhWwHxL-12" value="1" style="rounded=0;whiteSpace=wrap;html=1;fontStyle=1" vertex="1" parent="1">
          <mxGeometry x="200" y="560" width="120" height="40" as="geometry" />
        </mxCell>
        <mxCell id="6Yz6xSNR_-sx_KhWwHxL-24" style="edgeStyle=orthogonalEdgeStyle;rounded=0;orthogonalLoop=1;jettySize=auto;html=1;entryX=0.75;entryY=1;entryDx=0;entryDy=0;" edge="1" parent="1" source="6Yz6xSNR_-sx_KhWwHxL-13" target="6Yz6xSNR_-sx_KhWwHxL-22">
          <mxGeometry relative="1" as="geometry" />
        </mxCell>
        <mxCell id="6Yz6xSNR_-sx_KhWwHxL-13" value="0" style="rounded=0;whiteSpace=wrap;html=1;fontStyle=1;fillColor=#fff2cc;strokeColor=#d6b656;" vertex="1" parent="1">
          <mxGeometry x="200" y="520" width="120" height="40" as="geometry" />
        </mxCell>
        <mxCell id="6Yz6xSNR_-sx_KhWwHxL-14" value="" style="endArrow=classic;html=1;rounded=0;entryX=0;entryY=0.5;entryDx=0;entryDy=0;" edge="1" parent="1" target="6Yz6xSNR_-sx_KhWwHxL-10">
          <mxGeometry width="50" height="50" relative="1" as="geometry">
            <mxPoint x="110" y="500" as="sourcePoint" />
            <mxPoint x="100" y="660" as="targetPoint" />
          </mxGeometry>
        </mxCell>
        <mxCell id="6Yz6xSNR_-sx_KhWwHxL-15" value="" style="endArrow=classic;html=1;rounded=0;entryX=0;entryY=0.5;entryDx=0;entryDy=0;" edge="1" parent="1">
          <mxGeometry width="50" height="50" relative="1" as="geometry">
            <mxPoint x="110" y="530" as="sourcePoint" />
            <mxPoint x="200" y="530" as="targetPoint" />
          </mxGeometry>
        </mxCell>
        <mxCell id="6Yz6xSNR_-sx_KhWwHxL-17" value="B" style="text;html=1;strokeColor=none;fillColor=none;align=center;verticalAlign=middle;whiteSpace=wrap;rounded=0;" vertex="1" parent="1">
          <mxGeometry x="40" y="490" width="60" height="30" as="geometry" />
        </mxCell>
        <mxCell id="6Yz6xSNR_-sx_KhWwHxL-18" value="Cin" style="text;html=1;strokeColor=none;fillColor=none;align=center;verticalAlign=middle;whiteSpace=wrap;rounded=0;" vertex="1" parent="1">
          <mxGeometry x="40" y="525" width="60" height="30" as="geometry" />
        </mxCell>
        <mxCell id="6Yz6xSNR_-sx_KhWwHxL-21" value="010" style="text;html=1;strokeColor=none;fillColor=none;align=center;verticalAlign=middle;whiteSpace=wrap;rounded=0;" vertex="1" parent="1">
          <mxGeometry x="20" y="410" width="60" height="30" as="geometry" />
        </mxCell>
        <mxCell id="6Yz6xSNR_-sx_KhWwHxL-22" value="" style="shape=trapezoid;perimeter=trapezoidPerimeter;whiteSpace=wrap;html=1;fixedSize=1;rotation=90;" vertex="1" parent="1">
          <mxGeometry x="414" y="380" width="120" height="60" as="geometry" />
        </mxCell>
        <mxCell id="6Yz6xSNR_-sx_KhWwHxL-25" value="" style="endArrow=none;html=1;rounded=0;" edge="1" parent="1">
          <mxGeometry width="50" height="50" relative="1" as="geometry">
            <mxPoint x="120" y="650" as="sourcePoint" />
            <mxPoint x="470" y="650" as="targetPoint" />
            <Array as="points">
              <mxPoint x="120" y="650" />
            </Array>
          </mxGeometry>
        </mxCell>
        <mxCell id="6Yz6xSNR_-sx_KhWwHxL-26" value="" style="endArrow=classic;html=1;rounded=0;" edge="1" parent="1" target="6Yz6xSNR_-sx_KhWwHxL-22">
          <mxGeometry width="50" height="50" relative="1" as="geometry">
            <mxPoint x="470" y="650" as="sourcePoint" />
            <mxPoint x="440" y="440" as="targetPoint" />
          </mxGeometry>
        </mxCell>
        <mxCell id="6Yz6xSNR_-sx_KhWwHxL-27" value="A" style="text;html=1;strokeColor=none;fillColor=none;align=center;verticalAlign=middle;whiteSpace=wrap;rounded=0;" vertex="1" parent="1">
          <mxGeometry x="40" y="750" width="60" height="30" as="geometry" />
        </mxCell>
        <mxCell id="6Yz6xSNR_-sx_KhWwHxL-28" value="" style="endArrow=classic;html=1;rounded=0;entryX=0;entryY=0.5;entryDx=0;entryDy=0;" edge="1" parent="1">
          <mxGeometry width="50" height="50" relative="1" as="geometry">
            <mxPoint x="510" y="409.5" as="sourcePoint" />
            <mxPoint x="600" y="409.5" as="targetPoint" />
          </mxGeometry>
        </mxCell>
        <mxCell id="6Yz6xSNR_-sx_KhWwHxL-29" style="edgeStyle=orthogonalEdgeStyle;rounded=0;orthogonalLoop=1;jettySize=auto;html=1;exitX=1;exitY=0.5;exitDx=0;exitDy=0;entryX=0.25;entryY=1;entryDx=0;entryDy=0;" edge="1" parent="1" source="6Yz6xSNR_-sx_KhWwHxL-30" target="6Yz6xSNR_-sx_KhWwHxL-48">
          <mxGeometry relative="1" as="geometry" />
        </mxCell>
        <mxCell id="6Yz6xSNR_-sx_KhWwHxL-30" value="0" style="rounded=0;whiteSpace=wrap;html=1;fontStyle=1" vertex="1" parent="1">
          <mxGeometry x="200" y="760" width="120" height="40" as="geometry" />
        </mxCell>
        <mxCell id="6Yz6xSNR_-sx_KhWwHxL-31" value="0" style="rounded=0;whiteSpace=wrap;html=1;fontStyle=1" vertex="1" parent="1">
          <mxGeometry x="200" y="720" width="120" height="40" as="geometry" />
        </mxCell>
        <mxCell id="6Yz6xSNR_-sx_KhWwHxL-32" value="1" style="rounded=0;whiteSpace=wrap;html=1;fontStyle=1" vertex="1" parent="1">
          <mxGeometry x="200" y="840" width="120" height="40" as="geometry" />
        </mxCell>
        <mxCell id="6Yz6xSNR_-sx_KhWwHxL-33" value="0" style="rounded=0;whiteSpace=wrap;html=1;fontStyle=1;fillColor=#fff2cc;strokeColor=#d6b656;" vertex="1" parent="1">
          <mxGeometry x="200" y="800" width="120" height="40" as="geometry" />
        </mxCell>
        <mxCell id="6Yz6xSNR_-sx_KhWwHxL-34" value="" style="endArrow=classic;html=1;rounded=0;entryX=0;entryY=0.5;entryDx=0;entryDy=0;" edge="1" parent="1" target="6Yz6xSNR_-sx_KhWwHxL-30">
          <mxGeometry width="50" height="50" relative="1" as="geometry">
            <mxPoint x="110" y="780" as="sourcePoint" />
            <mxPoint x="100" y="940" as="targetPoint" />
          </mxGeometry>
        </mxCell>
        <mxCell id="6Yz6xSNR_-sx_KhWwHxL-35" value="" style="endArrow=classic;html=1;rounded=0;entryX=0;entryY=0.5;entryDx=0;entryDy=0;" edge="1" parent="1">
          <mxGeometry width="50" height="50" relative="1" as="geometry">
            <mxPoint x="110" y="810" as="sourcePoint" />
            <mxPoint x="200" y="810" as="targetPoint" />
          </mxGeometry>
        </mxCell>
        <mxCell id="6Yz6xSNR_-sx_KhWwHxL-36" value="B" style="text;html=1;strokeColor=none;fillColor=none;align=center;verticalAlign=middle;whiteSpace=wrap;rounded=0;" vertex="1" parent="1">
          <mxGeometry x="40" y="765" width="60" height="30" as="geometry" />
        </mxCell>
        <mxCell id="6Yz6xSNR_-sx_KhWwHxL-37" value="Cin" style="text;html=1;strokeColor=none;fillColor=none;align=center;verticalAlign=middle;whiteSpace=wrap;rounded=0;" vertex="1" parent="1">
          <mxGeometry x="40" y="800" width="60" height="30" as="geometry" />
        </mxCell>
        <mxCell id="6Yz6xSNR_-sx_KhWwHxL-38" value="1" style="rounded=0;whiteSpace=wrap;html=1;fontStyle=1" vertex="1" parent="1">
          <mxGeometry x="200" y="960" width="120" height="40" as="geometry" />
        </mxCell>
        <mxCell id="6Yz6xSNR_-sx_KhWwHxL-39" value="0" style="rounded=0;whiteSpace=wrap;html=1;fontStyle=1" vertex="1" parent="1">
          <mxGeometry x="200" y="920" width="120" height="40" as="geometry" />
        </mxCell>
        <mxCell id="6Yz6xSNR_-sx_KhWwHxL-40" value="1" style="rounded=0;whiteSpace=wrap;html=1;fontStyle=1" vertex="1" parent="1">
          <mxGeometry x="200" y="1040" width="120" height="40" as="geometry" />
        </mxCell>
        <mxCell id="6Yz6xSNR_-sx_KhWwHxL-41" style="edgeStyle=orthogonalEdgeStyle;rounded=0;orthogonalLoop=1;jettySize=auto;html=1;entryX=0.75;entryY=1;entryDx=0;entryDy=0;" edge="1" parent="1" source="6Yz6xSNR_-sx_KhWwHxL-42" target="6Yz6xSNR_-sx_KhWwHxL-48">
          <mxGeometry relative="1" as="geometry" />
        </mxCell>
        <mxCell id="6Yz6xSNR_-sx_KhWwHxL-42" value="1" style="rounded=0;whiteSpace=wrap;html=1;fontStyle=1;fillColor=#fff2cc;strokeColor=#d6b656;" vertex="1" parent="1">
          <mxGeometry x="200" y="1000" width="120" height="40" as="geometry" />
        </mxCell>
        <mxCell id="6Yz6xSNR_-sx_KhWwHxL-43" value="" style="endArrow=classic;html=1;rounded=0;entryX=0;entryY=0.5;entryDx=0;entryDy=0;" edge="1" parent="1" target="6Yz6xSNR_-sx_KhWwHxL-38">
          <mxGeometry width="50" height="50" relative="1" as="geometry">
            <mxPoint x="110" y="980" as="sourcePoint" />
            <mxPoint x="100" y="1140" as="targetPoint" />
          </mxGeometry>
        </mxCell>
        <mxCell id="6Yz6xSNR_-sx_KhWwHxL-44" value="" style="endArrow=classic;html=1;rounded=0;entryX=0;entryY=0.5;entryDx=0;entryDy=0;" edge="1" parent="1">
          <mxGeometry width="50" height="50" relative="1" as="geometry">
            <mxPoint x="110" y="1010" as="sourcePoint" />
            <mxPoint x="200" y="1010" as="targetPoint" />
          </mxGeometry>
        </mxCell>
        <mxCell id="6Yz6xSNR_-sx_KhWwHxL-45" value="B" style="text;html=1;strokeColor=none;fillColor=none;align=center;verticalAlign=middle;whiteSpace=wrap;rounded=0;" vertex="1" parent="1">
          <mxGeometry x="40" y="970" width="60" height="30" as="geometry" />
        </mxCell>
        <mxCell id="6Yz6xSNR_-sx_KhWwHxL-46" value="Cin" style="text;html=1;strokeColor=none;fillColor=none;align=center;verticalAlign=middle;whiteSpace=wrap;rounded=0;" vertex="1" parent="1">
          <mxGeometry x="40" y="1005" width="60" height="30" as="geometry" />
        </mxCell>
        <mxCell id="6Yz6xSNR_-sx_KhWwHxL-47" value="010" style="text;html=1;strokeColor=none;fillColor=none;align=center;verticalAlign=middle;whiteSpace=wrap;rounded=0;" vertex="1" parent="1">
          <mxGeometry x="20" y="890" width="60" height="30" as="geometry" />
        </mxCell>
        <mxCell id="6Yz6xSNR_-sx_KhWwHxL-48" value="" style="shape=trapezoid;perimeter=trapezoidPerimeter;whiteSpace=wrap;html=1;fixedSize=1;rotation=90;" vertex="1" parent="1">
          <mxGeometry x="414" y="860" width="120" height="60" as="geometry" />
        </mxCell>
        <mxCell id="6Yz6xSNR_-sx_KhWwHxL-49" value="" style="endArrow=none;html=1;rounded=0;" edge="1" parent="1">
          <mxGeometry width="50" height="50" relative="1" as="geometry">
            <mxPoint x="120" y="1130" as="sourcePoint" />
            <mxPoint x="470" y="1130" as="targetPoint" />
            <Array as="points">
              <mxPoint x="120" y="1130" />
            </Array>
          </mxGeometry>
        </mxCell>
        <mxCell id="6Yz6xSNR_-sx_KhWwHxL-50" value="" style="endArrow=classic;html=1;rounded=0;" edge="1" parent="1" target="6Yz6xSNR_-sx_KhWwHxL-48">
          <mxGeometry width="50" height="50" relative="1" as="geometry">
            <mxPoint x="470" y="1130" as="sourcePoint" />
            <mxPoint x="440" y="920" as="targetPoint" />
          </mxGeometry>
        </mxCell>
        <mxCell id="6Yz6xSNR_-sx_KhWwHxL-51" value="A" style="text;html=1;strokeColor=none;fillColor=none;align=center;verticalAlign=middle;whiteSpace=wrap;rounded=0;" vertex="1" parent="1">
          <mxGeometry x="40" y="1120" width="60" height="30" as="geometry" />
        </mxCell>
        <mxCell id="6Yz6xSNR_-sx_KhWwHxL-52" value="" style="endArrow=classic;html=1;rounded=0;entryX=0;entryY=0.5;entryDx=0;entryDy=0;" edge="1" parent="1">
          <mxGeometry width="50" height="50" relative="1" as="geometry">
            <mxPoint x="510" y="889.5" as="sourcePoint" />
            <mxPoint x="600" y="889.5" as="targetPoint" />
          </mxGeometry>
        </mxCell>
        <mxCell id="Zdwpmr2N8Zr9F5l6t-Z4-1" value="Sum" style="text;html=1;strokeColor=none;fillColor=none;align=center;verticalAlign=middle;whiteSpace=wrap;rounded=0;" vertex="1" parent="1">
          <mxGeometry x="570" y="430" width="60" height="30" as="geometry" />
        </mxCell>
        <mxCell id="Zdwpmr2N8Zr9F5l6t-Z4-2" value="Carry" style="text;html=1;strokeColor=none;fillColor=none;align=center;verticalAlign=middle;whiteSpace=wrap;rounded=0;" vertex="1" parent="1">
          <mxGeometry x="560" y="925" width="60" height="30" as="geometry" />
        </mxCell>
      </root>
    </mxGraphModel>
  </diagram>
  <diagram id="SW_VTQ_38v6EyOIFlm-5" name="Page-4">
    <mxGraphModel dx="1050" dy="1735" grid="1" gridSize="10" guides="1" tooltips="1" connect="1" arrows="1" fold="1" page="1" pageScale="1" pageWidth="827" pageHeight="1169" math="0" shadow="0">
      <root>
        <mxCell id="0" />
        <mxCell id="1" parent="0" />
        <mxCell id="bElkuwpUrunCDSDxj_RD-1" style="edgeStyle=orthogonalEdgeStyle;rounded=0;orthogonalLoop=1;jettySize=auto;html=1;exitX=1;exitY=0.5;exitDx=0;exitDy=0;entryX=0.25;entryY=1;entryDx=0;entryDy=0;" edge="1" parent="1" source="bElkuwpUrunCDSDxj_RD-2" target="bElkuwpUrunCDSDxj_RD-19">
          <mxGeometry relative="1" as="geometry" />
        </mxCell>
        <mxCell id="bElkuwpUrunCDSDxj_RD-2" value="1" style="rounded=0;whiteSpace=wrap;html=1;fontStyle=1" vertex="1" parent="1">
          <mxGeometry x="210" y="110" width="120" height="40" as="geometry" />
        </mxCell>
        <mxCell id="bElkuwpUrunCDSDxj_RD-3" value="0" style="rounded=0;whiteSpace=wrap;html=1;fontStyle=1" vertex="1" parent="1">
          <mxGeometry x="210" y="70" width="120" height="40" as="geometry" />
        </mxCell>
        <mxCell id="bElkuwpUrunCDSDxj_RD-4" value="0" style="rounded=0;whiteSpace=wrap;html=1;fontStyle=1" vertex="1" parent="1">
          <mxGeometry x="210" y="190" width="120" height="40" as="geometry" />
        </mxCell>
        <mxCell id="bElkuwpUrunCDSDxj_RD-5" value="1" style="rounded=0;whiteSpace=wrap;html=1;fontStyle=1;fillColor=#fff2cc;strokeColor=#d6b656;" vertex="1" parent="1">
          <mxGeometry x="210" y="150" width="120" height="40" as="geometry" />
        </mxCell>
        <mxCell id="bElkuwpUrunCDSDxj_RD-6" value="" style="endArrow=classic;html=1;rounded=0;entryX=0;entryY=0.5;entryDx=0;entryDy=0;" edge="1" parent="1" target="bElkuwpUrunCDSDxj_RD-2">
          <mxGeometry width="50" height="50" relative="1" as="geometry">
            <mxPoint x="120" y="130" as="sourcePoint" />
            <mxPoint x="110" y="290" as="targetPoint" />
          </mxGeometry>
        </mxCell>
        <mxCell id="bElkuwpUrunCDSDxj_RD-7" value="" style="endArrow=classic;html=1;rounded=0;entryX=0;entryY=0.5;entryDx=0;entryDy=0;" edge="1" parent="1">
          <mxGeometry width="50" height="50" relative="1" as="geometry">
            <mxPoint x="120" y="160" as="sourcePoint" />
            <mxPoint x="210" y="160" as="targetPoint" />
          </mxGeometry>
        </mxCell>
        <mxCell id="bElkuwpUrunCDSDxj_RD-8" value="B" style="text;html=1;strokeColor=none;fillColor=none;align=center;verticalAlign=middle;whiteSpace=wrap;rounded=0;" vertex="1" parent="1">
          <mxGeometry x="50" y="115" width="60" height="30" as="geometry" />
        </mxCell>
        <mxCell id="bElkuwpUrunCDSDxj_RD-9" value="Cin" style="text;html=1;strokeColor=none;fillColor=none;align=center;verticalAlign=middle;whiteSpace=wrap;rounded=0;" vertex="1" parent="1">
          <mxGeometry x="50" y="150" width="60" height="30" as="geometry" />
        </mxCell>
        <mxCell id="bElkuwpUrunCDSDxj_RD-10" value="0" style="rounded=0;whiteSpace=wrap;html=1;fontStyle=1" vertex="1" parent="1">
          <mxGeometry x="210" y="310" width="120" height="40" as="geometry" />
        </mxCell>
        <mxCell id="bElkuwpUrunCDSDxj_RD-11" value="1" style="rounded=0;whiteSpace=wrap;html=1;fontStyle=1" vertex="1" parent="1">
          <mxGeometry x="210" y="270" width="120" height="40" as="geometry" />
        </mxCell>
        <mxCell id="bElkuwpUrunCDSDxj_RD-12" value="1" style="rounded=0;whiteSpace=wrap;html=1;fontStyle=1" vertex="1" parent="1">
          <mxGeometry x="210" y="390" width="120" height="40" as="geometry" />
        </mxCell>
        <mxCell id="bElkuwpUrunCDSDxj_RD-13" style="edgeStyle=orthogonalEdgeStyle;rounded=0;orthogonalLoop=1;jettySize=auto;html=1;entryX=0.75;entryY=1;entryDx=0;entryDy=0;" edge="1" parent="1" source="bElkuwpUrunCDSDxj_RD-14" target="bElkuwpUrunCDSDxj_RD-19">
          <mxGeometry relative="1" as="geometry" />
        </mxCell>
        <mxCell id="bElkuwpUrunCDSDxj_RD-14" value="0" style="rounded=0;whiteSpace=wrap;html=1;fontStyle=1;fillColor=#fff2cc;strokeColor=#d6b656;" vertex="1" parent="1">
          <mxGeometry x="210" y="350" width="120" height="40" as="geometry" />
        </mxCell>
        <mxCell id="bElkuwpUrunCDSDxj_RD-15" value="" style="endArrow=classic;html=1;rounded=0;entryX=0;entryY=0.5;entryDx=0;entryDy=0;" edge="1" parent="1" target="bElkuwpUrunCDSDxj_RD-10">
          <mxGeometry width="50" height="50" relative="1" as="geometry">
            <mxPoint x="120" y="330" as="sourcePoint" />
            <mxPoint x="110" y="490" as="targetPoint" />
          </mxGeometry>
        </mxCell>
        <mxCell id="bElkuwpUrunCDSDxj_RD-16" value="" style="endArrow=classic;html=1;rounded=0;entryX=0;entryY=0.5;entryDx=0;entryDy=0;" edge="1" parent="1">
          <mxGeometry width="50" height="50" relative="1" as="geometry">
            <mxPoint x="120" y="360" as="sourcePoint" />
            <mxPoint x="210" y="360" as="targetPoint" />
          </mxGeometry>
        </mxCell>
        <mxCell id="bElkuwpUrunCDSDxj_RD-17" value="B" style="text;html=1;strokeColor=none;fillColor=none;align=center;verticalAlign=middle;whiteSpace=wrap;rounded=0;" vertex="1" parent="1">
          <mxGeometry x="50" y="320" width="60" height="30" as="geometry" />
        </mxCell>
        <mxCell id="bElkuwpUrunCDSDxj_RD-18" value="Cin" style="text;html=1;strokeColor=none;fillColor=none;align=center;verticalAlign=middle;whiteSpace=wrap;rounded=0;" vertex="1" parent="1">
          <mxGeometry x="50" y="355" width="60" height="30" as="geometry" />
        </mxCell>
        <mxCell id="bElkuwpUrunCDSDxj_RD-53" style="edgeStyle=orthogonalEdgeStyle;rounded=0;orthogonalLoop=1;jettySize=auto;html=1;exitX=0.5;exitY=0;exitDx=0;exitDy=0;entryX=0.4;entryY=0.983;entryDx=0;entryDy=0;entryPerimeter=0;" edge="1" parent="1" source="bElkuwpUrunCDSDxj_RD-19" target="bElkuwpUrunCDSDxj_RD-50">
          <mxGeometry relative="1" as="geometry" />
        </mxCell>
        <mxCell id="bElkuwpUrunCDSDxj_RD-19" value="" style="shape=trapezoid;perimeter=trapezoidPerimeter;whiteSpace=wrap;html=1;fixedSize=1;rotation=90;" vertex="1" parent="1">
          <mxGeometry x="424" y="210" width="120" height="60" as="geometry" />
        </mxCell>
        <mxCell id="bElkuwpUrunCDSDxj_RD-20" value="" style="endArrow=none;html=1;rounded=0;" edge="1" parent="1">
          <mxGeometry width="50" height="50" relative="1" as="geometry">
            <mxPoint x="130" y="480" as="sourcePoint" />
            <mxPoint x="480" y="480" as="targetPoint" />
            <Array as="points">
              <mxPoint x="130" y="480" />
            </Array>
          </mxGeometry>
        </mxCell>
        <mxCell id="bElkuwpUrunCDSDxj_RD-21" value="" style="endArrow=classic;html=1;rounded=0;" edge="1" parent="1" target="bElkuwpUrunCDSDxj_RD-19">
          <mxGeometry width="50" height="50" relative="1" as="geometry">
            <mxPoint x="480" y="480" as="sourcePoint" />
            <mxPoint x="450" y="270" as="targetPoint" />
          </mxGeometry>
        </mxCell>
        <mxCell id="bElkuwpUrunCDSDxj_RD-22" value="A" style="text;html=1;strokeColor=none;fillColor=none;align=center;verticalAlign=middle;whiteSpace=wrap;rounded=0;" vertex="1" parent="1">
          <mxGeometry x="50" y="580" width="60" height="30" as="geometry" />
        </mxCell>
        <mxCell id="bElkuwpUrunCDSDxj_RD-24" style="edgeStyle=orthogonalEdgeStyle;rounded=0;orthogonalLoop=1;jettySize=auto;html=1;exitX=1;exitY=0.5;exitDx=0;exitDy=0;entryX=0.25;entryY=1;entryDx=0;entryDy=0;" edge="1" parent="1" source="bElkuwpUrunCDSDxj_RD-25" target="bElkuwpUrunCDSDxj_RD-42">
          <mxGeometry relative="1" as="geometry" />
        </mxCell>
        <mxCell id="bElkuwpUrunCDSDxj_RD-25" value="0" style="rounded=0;whiteSpace=wrap;html=1;fontStyle=1" vertex="1" parent="1">
          <mxGeometry x="210" y="590" width="120" height="40" as="geometry" />
        </mxCell>
        <mxCell id="bElkuwpUrunCDSDxj_RD-26" value="0" style="rounded=0;whiteSpace=wrap;html=1;fontStyle=1" vertex="1" parent="1">
          <mxGeometry x="210" y="550" width="120" height="40" as="geometry" />
        </mxCell>
        <mxCell id="bElkuwpUrunCDSDxj_RD-27" value="1" style="rounded=0;whiteSpace=wrap;html=1;fontStyle=1" vertex="1" parent="1">
          <mxGeometry x="210" y="670" width="120" height="40" as="geometry" />
        </mxCell>
        <mxCell id="bElkuwpUrunCDSDxj_RD-28" value="0" style="rounded=0;whiteSpace=wrap;html=1;fontStyle=1;fillColor=#fff2cc;strokeColor=#d6b656;" vertex="1" parent="1">
          <mxGeometry x="210" y="630" width="120" height="40" as="geometry" />
        </mxCell>
        <mxCell id="bElkuwpUrunCDSDxj_RD-29" value="" style="endArrow=classic;html=1;rounded=0;entryX=0;entryY=0.5;entryDx=0;entryDy=0;" edge="1" parent="1" target="bElkuwpUrunCDSDxj_RD-25">
          <mxGeometry width="50" height="50" relative="1" as="geometry">
            <mxPoint x="120" y="610" as="sourcePoint" />
            <mxPoint x="110" y="770" as="targetPoint" />
          </mxGeometry>
        </mxCell>
        <mxCell id="bElkuwpUrunCDSDxj_RD-30" value="" style="endArrow=classic;html=1;rounded=0;entryX=0;entryY=0.5;entryDx=0;entryDy=0;" edge="1" parent="1">
          <mxGeometry width="50" height="50" relative="1" as="geometry">
            <mxPoint x="120" y="640" as="sourcePoint" />
            <mxPoint x="210" y="640" as="targetPoint" />
          </mxGeometry>
        </mxCell>
        <mxCell id="bElkuwpUrunCDSDxj_RD-31" value="B" style="text;html=1;strokeColor=none;fillColor=none;align=center;verticalAlign=middle;whiteSpace=wrap;rounded=0;" vertex="1" parent="1">
          <mxGeometry x="50" y="595" width="60" height="30" as="geometry" />
        </mxCell>
        <mxCell id="bElkuwpUrunCDSDxj_RD-32" value="Cin" style="text;html=1;strokeColor=none;fillColor=none;align=center;verticalAlign=middle;whiteSpace=wrap;rounded=0;" vertex="1" parent="1">
          <mxGeometry x="50" y="630" width="60" height="30" as="geometry" />
        </mxCell>
        <mxCell id="bElkuwpUrunCDSDxj_RD-33" value="1" style="rounded=0;whiteSpace=wrap;html=1;fontStyle=1" vertex="1" parent="1">
          <mxGeometry x="210" y="790" width="120" height="40" as="geometry" />
        </mxCell>
        <mxCell id="bElkuwpUrunCDSDxj_RD-34" value="0" style="rounded=0;whiteSpace=wrap;html=1;fontStyle=1" vertex="1" parent="1">
          <mxGeometry x="210" y="750" width="120" height="40" as="geometry" />
        </mxCell>
        <mxCell id="bElkuwpUrunCDSDxj_RD-35" value="1" style="rounded=0;whiteSpace=wrap;html=1;fontStyle=1" vertex="1" parent="1">
          <mxGeometry x="210" y="870" width="120" height="40" as="geometry" />
        </mxCell>
        <mxCell id="bElkuwpUrunCDSDxj_RD-36" style="edgeStyle=orthogonalEdgeStyle;rounded=0;orthogonalLoop=1;jettySize=auto;html=1;entryX=0.75;entryY=1;entryDx=0;entryDy=0;" edge="1" parent="1" source="bElkuwpUrunCDSDxj_RD-37" target="bElkuwpUrunCDSDxj_RD-42">
          <mxGeometry relative="1" as="geometry" />
        </mxCell>
        <mxCell id="bElkuwpUrunCDSDxj_RD-37" value="1" style="rounded=0;whiteSpace=wrap;html=1;fontStyle=1;fillColor=#fff2cc;strokeColor=#d6b656;" vertex="1" parent="1">
          <mxGeometry x="210" y="830" width="120" height="40" as="geometry" />
        </mxCell>
        <mxCell id="bElkuwpUrunCDSDxj_RD-38" value="" style="endArrow=classic;html=1;rounded=0;entryX=0;entryY=0.5;entryDx=0;entryDy=0;" edge="1" parent="1" target="bElkuwpUrunCDSDxj_RD-33">
          <mxGeometry width="50" height="50" relative="1" as="geometry">
            <mxPoint x="120" y="810" as="sourcePoint" />
            <mxPoint x="110" y="970" as="targetPoint" />
          </mxGeometry>
        </mxCell>
        <mxCell id="bElkuwpUrunCDSDxj_RD-39" value="" style="endArrow=classic;html=1;rounded=0;entryX=0;entryY=0.5;entryDx=0;entryDy=0;" edge="1" parent="1">
          <mxGeometry width="50" height="50" relative="1" as="geometry">
            <mxPoint x="120" y="840" as="sourcePoint" />
            <mxPoint x="210" y="840" as="targetPoint" />
          </mxGeometry>
        </mxCell>
        <mxCell id="bElkuwpUrunCDSDxj_RD-40" value="B" style="text;html=1;strokeColor=none;fillColor=none;align=center;verticalAlign=middle;whiteSpace=wrap;rounded=0;" vertex="1" parent="1">
          <mxGeometry x="50" y="800" width="60" height="30" as="geometry" />
        </mxCell>
        <mxCell id="bElkuwpUrunCDSDxj_RD-41" value="Cin" style="text;html=1;strokeColor=none;fillColor=none;align=center;verticalAlign=middle;whiteSpace=wrap;rounded=0;" vertex="1" parent="1">
          <mxGeometry x="50" y="835" width="60" height="30" as="geometry" />
        </mxCell>
        <mxCell id="bElkuwpUrunCDSDxj_RD-52" style="edgeStyle=orthogonalEdgeStyle;rounded=0;orthogonalLoop=1;jettySize=auto;html=1;exitX=0.5;exitY=0;exitDx=0;exitDy=0;entryX=0.75;entryY=1;entryDx=0;entryDy=0;" edge="1" parent="1" source="bElkuwpUrunCDSDxj_RD-42" target="bElkuwpUrunCDSDxj_RD-50">
          <mxGeometry relative="1" as="geometry" />
        </mxCell>
        <mxCell id="bElkuwpUrunCDSDxj_RD-42" value="" style="shape=trapezoid;perimeter=trapezoidPerimeter;whiteSpace=wrap;html=1;fixedSize=1;rotation=90;" vertex="1" parent="1">
          <mxGeometry x="424" y="690" width="120" height="60" as="geometry" />
        </mxCell>
        <mxCell id="bElkuwpUrunCDSDxj_RD-43" value="" style="endArrow=none;html=1;rounded=0;" edge="1" parent="1">
          <mxGeometry width="50" height="50" relative="1" as="geometry">
            <mxPoint x="130" y="960" as="sourcePoint" />
            <mxPoint x="480" y="960" as="targetPoint" />
            <Array as="points">
              <mxPoint x="130" y="960" />
            </Array>
          </mxGeometry>
        </mxCell>
        <mxCell id="bElkuwpUrunCDSDxj_RD-44" value="" style="endArrow=classic;html=1;rounded=0;" edge="1" parent="1" target="bElkuwpUrunCDSDxj_RD-42">
          <mxGeometry width="50" height="50" relative="1" as="geometry">
            <mxPoint x="480" y="960" as="sourcePoint" />
            <mxPoint x="450" y="750" as="targetPoint" />
          </mxGeometry>
        </mxCell>
        <mxCell id="bElkuwpUrunCDSDxj_RD-45" value="A" style="text;html=1;strokeColor=none;fillColor=none;align=center;verticalAlign=middle;whiteSpace=wrap;rounded=0;" vertex="1" parent="1">
          <mxGeometry x="50" y="950" width="60" height="30" as="geometry" />
        </mxCell>
        <mxCell id="bElkuwpUrunCDSDxj_RD-49" value="&amp;nbsp;X A B C" style="text;html=1;strokeColor=none;fillColor=none;align=center;verticalAlign=middle;whiteSpace=wrap;rounded=0;" vertex="1" parent="1">
          <mxGeometry x="484" y="-10" width="60" height="30" as="geometry" />
        </mxCell>
        <mxCell id="bElkuwpUrunCDSDxj_RD-50" value="" style="shape=trapezoid;perimeter=trapezoidPerimeter;whiteSpace=wrap;html=1;fixedSize=1;rotation=90;" vertex="1" parent="1">
          <mxGeometry x="590" y="460" width="120" height="60" as="geometry" />
        </mxCell>
        <mxCell id="bElkuwpUrunCDSDxj_RD-51" value="" style="endArrow=classic;html=1;rounded=0;" edge="1" parent="1">
          <mxGeometry width="50" height="50" relative="1" as="geometry">
            <mxPoint x="680" y="489.5" as="sourcePoint" />
            <mxPoint x="740" y="490" as="targetPoint" />
          </mxGeometry>
        </mxCell>
        <mxCell id="bElkuwpUrunCDSDxj_RD-56" style="edgeStyle=orthogonalEdgeStyle;rounded=0;orthogonalLoop=1;jettySize=auto;html=1;exitX=0.5;exitY=0;exitDx=0;exitDy=0;" edge="1" parent="1" source="bElkuwpUrunCDSDxj_RD-54" target="bElkuwpUrunCDSDxj_RD-50">
          <mxGeometry relative="1" as="geometry" />
        </mxCell>
        <mxCell id="bElkuwpUrunCDSDxj_RD-54" value="X" style="text;html=1;strokeColor=none;fillColor=none;align=center;verticalAlign=middle;whiteSpace=wrap;rounded=0;" vertex="1" parent="1">
          <mxGeometry x="620" y="590" width="60" height="30" as="geometry" />
        </mxCell>
        <mxCell id="bElkuwpUrunCDSDxj_RD-55" value="Text" style="text;html=1;strokeColor=none;fillColor=none;align=center;verticalAlign=middle;whiteSpace=wrap;rounded=0;" vertex="1" parent="1">
          <mxGeometry x="380" y="590" width="60" height="30" as="geometry" />
        </mxCell>
        <mxCell id="bElkuwpUrunCDSDxj_RD-57" value="A" style="text;html=1;strokeColor=none;fillColor=none;align=center;verticalAlign=middle;whiteSpace=wrap;rounded=0;" vertex="1" parent="1">
          <mxGeometry x="60" y="470" width="60" height="30" as="geometry" />
        </mxCell>
        <mxCell id="bElkuwpUrunCDSDxj_RD-58" value="FF" style="rounded=0;whiteSpace=wrap;html=1;fillColor=#fa6800;fontColor=#000000;strokeColor=#C73500;fontStyle=1" vertex="1" parent="1">
          <mxGeometry x="740" y="460" width="120" height="60" as="geometry" />
        </mxCell>
      </root>
    </mxGraphModel>
  </diagram>
  <diagram id="SnKb2t69w1SXjcaMOObl" name="Page-5">
    <mxGraphModel dx="1050" dy="566" grid="1" gridSize="10" guides="1" tooltips="1" connect="1" arrows="1" fold="1" page="1" pageScale="1" pageWidth="827" pageHeight="1169" math="0" shadow="0">
      <root>
        <mxCell id="0" />
        <mxCell id="1" parent="0" />
        <mxCell id="j-RGeKAzCPJEuYoBZNsb-1" value="" style="shape=image;verticalLabelPosition=bottom;labelBackgroundColor=default;verticalAlign=top;aspect=fixed;imageAspect=0;image=https://www.researchgate.net/publication/2389232/figure/fig1/AS:645030091968513@1530798566192/Simplified-block-diagram-of-the-XC4000-Series-CLB-RAM-and-carry-logic-functions-not.png;" vertex="1" parent="1">
          <mxGeometry x="50" y="30" width="850" height="591" as="geometry" />
        </mxCell>
      </root>
    </mxGraphModel>
  </diagram>
  <diagram id="jiCqwOZBt7QbGkkX6bBT" name="Page-6">
    <mxGraphModel dx="1050" dy="566" grid="1" gridSize="10" guides="1" tooltips="1" connect="1" arrows="1" fold="1" page="1" pageScale="1" pageWidth="827" pageHeight="1169" math="0" shadow="0">
      <root>
        <mxCell id="0" />
        <mxCell id="1" parent="0" />
        <mxCell id="N3X2Fs9eKUOf6WpQTHO--1" value="" style="shape=image;verticalLabelPosition=bottom;labelBackgroundColor=default;verticalAlign=top;aspect=fixed;imageAspect=0;image=https://theorycircuit.com/wp-content/uploads/2018/07/full-adder-truth-table.png;" vertex="1" parent="1">
          <mxGeometry x="70" y="20" width="264.71" height="313" as="geometry" />
        </mxCell>
        <mxCell id="N3X2Fs9eKUOf6WpQTHO--2" value="FA1" style="rounded=0;whiteSpace=wrap;html=1;" vertex="1" parent="1">
          <mxGeometry x="250" y="430" width="120" height="60" as="geometry" />
        </mxCell>
        <mxCell id="N3X2Fs9eKUOf6WpQTHO--4" style="edgeStyle=orthogonalEdgeStyle;rounded=0;orthogonalLoop=1;jettySize=auto;html=1;exitX=0;exitY=0.5;exitDx=0;exitDy=0;entryX=1;entryY=0.5;entryDx=0;entryDy=0;" edge="1" parent="1" source="N3X2Fs9eKUOf6WpQTHO--3" target="N3X2Fs9eKUOf6WpQTHO--2">
          <mxGeometry relative="1" as="geometry" />
        </mxCell>
        <mxCell id="N3X2Fs9eKUOf6WpQTHO--3" value="FA0" style="rounded=0;whiteSpace=wrap;html=1;" vertex="1" parent="1">
          <mxGeometry x="510" y="430" width="120" height="60" as="geometry" />
        </mxCell>
        <mxCell id="N3X2Fs9eKUOf6WpQTHO--5" style="edgeStyle=orthogonalEdgeStyle;rounded=0;orthogonalLoop=1;jettySize=auto;html=1;exitX=0;exitY=0.5;exitDx=0;exitDy=0;entryX=1;entryY=0.5;entryDx=0;entryDy=0;" edge="1" parent="1">
          <mxGeometry relative="1" as="geometry">
            <mxPoint x="720" y="459.5" as="sourcePoint" />
            <mxPoint x="630" y="459.5" as="targetPoint" />
          </mxGeometry>
        </mxCell>
        <mxCell id="N3X2Fs9eKUOf6WpQTHO--6" style="edgeStyle=orthogonalEdgeStyle;rounded=0;orthogonalLoop=1;jettySize=auto;html=1;exitX=0;exitY=0.5;exitDx=0;exitDy=0;entryX=1;entryY=0.5;entryDx=0;entryDy=0;" edge="1" parent="1">
          <mxGeometry relative="1" as="geometry">
            <mxPoint x="250" y="459.5" as="sourcePoint" />
            <mxPoint x="160" y="459.5" as="targetPoint" />
          </mxGeometry>
        </mxCell>
        <mxCell id="N3X2Fs9eKUOf6WpQTHO--7" value="" style="endArrow=classic;html=1;rounded=0;entryX=0.75;entryY=0;entryDx=0;entryDy=0;" edge="1" parent="1" target="N3X2Fs9eKUOf6WpQTHO--2">
          <mxGeometry width="50" height="50" relative="1" as="geometry">
            <mxPoint x="340" y="370" as="sourcePoint" />
            <mxPoint x="440" y="270" as="targetPoint" />
          </mxGeometry>
        </mxCell>
        <mxCell id="N3X2Fs9eKUOf6WpQTHO--8" value="" style="endArrow=classic;html=1;rounded=0;entryX=0.75;entryY=0;entryDx=0;entryDy=0;" edge="1" parent="1">
          <mxGeometry width="50" height="50" relative="1" as="geometry">
            <mxPoint x="290" y="370" as="sourcePoint" />
            <mxPoint x="290" y="430" as="targetPoint" />
          </mxGeometry>
        </mxCell>
        <mxCell id="N3X2Fs9eKUOf6WpQTHO--9" value="" style="endArrow=classic;html=1;rounded=0;entryX=0.75;entryY=0;entryDx=0;entryDy=0;" edge="1" parent="1">
          <mxGeometry width="50" height="50" relative="1" as="geometry">
            <mxPoint x="594.5" y="370" as="sourcePoint" />
            <mxPoint x="594.5" y="430" as="targetPoint" />
          </mxGeometry>
        </mxCell>
        <mxCell id="N3X2Fs9eKUOf6WpQTHO--10" value="" style="endArrow=classic;html=1;rounded=0;entryX=0.75;entryY=0;entryDx=0;entryDy=0;" edge="1" parent="1">
          <mxGeometry width="50" height="50" relative="1" as="geometry">
            <mxPoint x="544.5" y="370" as="sourcePoint" />
            <mxPoint x="544.5" y="430" as="targetPoint" />
          </mxGeometry>
        </mxCell>
        <mxCell id="N3X2Fs9eKUOf6WpQTHO--11" value="" style="endArrow=classic;html=1;rounded=0;entryX=0.75;entryY=0;entryDx=0;entryDy=0;" edge="1" parent="1">
          <mxGeometry width="50" height="50" relative="1" as="geometry">
            <mxPoint x="569.5" y="490" as="sourcePoint" />
            <mxPoint x="569.5" y="550" as="targetPoint" />
          </mxGeometry>
        </mxCell>
        <mxCell id="N3X2Fs9eKUOf6WpQTHO--12" value="" style="endArrow=classic;html=1;rounded=0;entryX=0.75;entryY=0;entryDx=0;entryDy=0;" edge="1" parent="1">
          <mxGeometry width="50" height="50" relative="1" as="geometry">
            <mxPoint x="320" y="490" as="sourcePoint" />
            <mxPoint x="320" y="550" as="targetPoint" />
          </mxGeometry>
        </mxCell>
        <mxCell id="ovCXGJKOmBfB48pLWI4T-1" value="8 LUT 2 input and 4 MUX 2:1" style="text;html=1;strokeColor=none;fillColor=none;align=center;verticalAlign=middle;whiteSpace=wrap;rounded=0;" vertex="1" parent="1">
          <mxGeometry x="309" y="570" width="210" height="30" as="geometry" />
        </mxCell>
        <mxCell id="ovCXGJKOmBfB48pLWI4T-13" value="MUX" style="rounded=0;whiteSpace=wrap;html=1;" vertex="1" parent="1">
          <mxGeometry x="334.71000000000004" y="700" width="120" height="60" as="geometry" />
        </mxCell>
        <mxCell id="ovCXGJKOmBfB48pLWI4T-14" style="edgeStyle=orthogonalEdgeStyle;rounded=0;orthogonalLoop=1;jettySize=auto;html=1;exitX=0;exitY=0.5;exitDx=0;exitDy=0;entryX=1;entryY=0.5;entryDx=0;entryDy=0;" edge="1" parent="1">
          <mxGeometry relative="1" as="geometry">
            <mxPoint x="544.71" y="729.5" as="sourcePoint" />
            <mxPoint x="454.71000000000004" y="729.5" as="targetPoint" />
          </mxGeometry>
        </mxCell>
        <mxCell id="ovCXGJKOmBfB48pLWI4T-15" value="" style="endArrow=classic;html=1;rounded=0;entryX=0.75;entryY=0;entryDx=0;entryDy=0;" edge="1" parent="1">
          <mxGeometry width="50" height="50" relative="1" as="geometry">
            <mxPoint x="419.21000000000004" y="640" as="sourcePoint" />
            <mxPoint x="419.21000000000004" y="700" as="targetPoint" />
          </mxGeometry>
        </mxCell>
        <mxCell id="ovCXGJKOmBfB48pLWI4T-16" value="" style="endArrow=classic;html=1;rounded=0;entryX=0.75;entryY=0;entryDx=0;entryDy=0;" edge="1" parent="1">
          <mxGeometry width="50" height="50" relative="1" as="geometry">
            <mxPoint x="369.21000000000004" y="640" as="sourcePoint" />
            <mxPoint x="369.21000000000004" y="700" as="targetPoint" />
          </mxGeometry>
        </mxCell>
        <mxCell id="ovCXGJKOmBfB48pLWI4T-17" value="" style="endArrow=classic;html=1;rounded=0;entryX=0.75;entryY=0;entryDx=0;entryDy=0;" edge="1" parent="1">
          <mxGeometry width="50" height="50" relative="1" as="geometry">
            <mxPoint x="394.21000000000004" y="760" as="sourcePoint" />
            <mxPoint x="394.21000000000004" y="820" as="targetPoint" />
          </mxGeometry>
        </mxCell>
      </root>
    </mxGraphModel>
  </diagram>
  <diagram id="SzMHSzRqO8vMEAhWE7YW" name="Page-7">
    <mxGraphModel dx="1050" dy="566" grid="1" gridSize="10" guides="1" tooltips="1" connect="1" arrows="1" fold="1" page="1" pageScale="1" pageWidth="827" pageHeight="1169" math="0" shadow="0">
      <root>
        <mxCell id="0" />
        <mxCell id="1" parent="0" />
        <mxCell id="4uEbbti4NaN4_RhKvcaB-1" value="&lt;b&gt;&lt;font style=&quot;font-size: 20px;&quot;&gt;FPGA Design Flow&lt;/font&gt;&lt;/b&gt;" style="text;html=1;strokeColor=none;fillColor=none;align=center;verticalAlign=middle;whiteSpace=wrap;rounded=0;" vertex="1" parent="1">
          <mxGeometry x="250" y="60" width="260" height="30" as="geometry" />
        </mxCell>
        <mxCell id="4uEbbti4NaN4_RhKvcaB-7" style="edgeStyle=orthogonalEdgeStyle;rounded=0;orthogonalLoop=1;jettySize=auto;html=1;exitX=0.5;exitY=1;exitDx=0;exitDy=0;entryX=0.5;entryY=0;entryDx=0;entryDy=0;" edge="1" parent="1" source="4uEbbti4NaN4_RhKvcaB-2" target="4uEbbti4NaN4_RhKvcaB-5">
          <mxGeometry relative="1" as="geometry" />
        </mxCell>
        <mxCell id="4uEbbti4NaN4_RhKvcaB-2" value="&lt;b&gt;Design Specifications&lt;/b&gt;" style="rounded=1;whiteSpace=wrap;html=1;fillColor=#647687;fontColor=#ffffff;strokeColor=#314354;" vertex="1" parent="1">
          <mxGeometry x="290" y="130" width="190" height="40" as="geometry" />
        </mxCell>
        <mxCell id="4uEbbti4NaN4_RhKvcaB-9" style="edgeStyle=orthogonalEdgeStyle;rounded=0;orthogonalLoop=1;jettySize=auto;html=1;exitX=0.5;exitY=1;exitDx=0;exitDy=0;entryX=0.5;entryY=0;entryDx=0;entryDy=0;" edge="1" parent="1" source="4uEbbti4NaN4_RhKvcaB-4" target="4uEbbti4NaN4_RhKvcaB-8">
          <mxGeometry relative="1" as="geometry" />
        </mxCell>
        <mxCell id="4uEbbti4NaN4_RhKvcaB-4" value="&lt;b&gt;Verfication Flow&lt;br&gt;&lt;/b&gt;" style="rounded=1;whiteSpace=wrap;html=1;fillColor=#f0a30a;fontColor=#000000;strokeColor=#BD7000;" vertex="1" parent="1">
          <mxGeometry x="570" y="210" width="190" height="40" as="geometry" />
        </mxCell>
        <mxCell id="4uEbbti4NaN4_RhKvcaB-6" style="edgeStyle=orthogonalEdgeStyle;rounded=0;orthogonalLoop=1;jettySize=auto;html=1;exitX=1;exitY=0.5;exitDx=0;exitDy=0;" edge="1" parent="1" source="4uEbbti4NaN4_RhKvcaB-5" target="4uEbbti4NaN4_RhKvcaB-4">
          <mxGeometry relative="1" as="geometry" />
        </mxCell>
        <mxCell id="4uEbbti4NaN4_RhKvcaB-5" value="&lt;b&gt;HDL Design&lt;br&gt;&lt;/b&gt;" style="rounded=1;whiteSpace=wrap;html=1;fillColor=#647687;fontColor=#ffffff;strokeColor=#314354;" vertex="1" parent="1">
          <mxGeometry x="290" y="210" width="190" height="40" as="geometry" />
        </mxCell>
        <mxCell id="4uEbbti4NaN4_RhKvcaB-11" style="edgeStyle=orthogonalEdgeStyle;rounded=0;orthogonalLoop=1;jettySize=auto;html=1;exitX=0;exitY=0.5;exitDx=0;exitDy=0;entryX=1;entryY=0.5;entryDx=0;entryDy=0;" edge="1" parent="1" source="4uEbbti4NaN4_RhKvcaB-8" target="4uEbbti4NaN4_RhKvcaB-10">
          <mxGeometry relative="1" as="geometry" />
        </mxCell>
        <mxCell id="4uEbbti4NaN4_RhKvcaB-8" value="&lt;b&gt;Functionally Verified Design&lt;br&gt;&lt;/b&gt;" style="rounded=1;whiteSpace=wrap;html=1;fillColor=#647687;fontColor=#ffffff;strokeColor=#314354;" vertex="1" parent="1">
          <mxGeometry x="570" y="300" width="190" height="40" as="geometry" />
        </mxCell>
        <mxCell id="4uEbbti4NaN4_RhKvcaB-13" style="edgeStyle=orthogonalEdgeStyle;rounded=0;orthogonalLoop=1;jettySize=auto;html=1;exitX=0;exitY=0.5;exitDx=0;exitDy=0;entryX=1;entryY=0.5;entryDx=0;entryDy=0;" edge="1" parent="1" source="4uEbbti4NaN4_RhKvcaB-10" target="4uEbbti4NaN4_RhKvcaB-12">
          <mxGeometry relative="1" as="geometry" />
        </mxCell>
        <mxCell id="4uEbbti4NaN4_RhKvcaB-18" style="edgeStyle=orthogonalEdgeStyle;rounded=0;orthogonalLoop=1;jettySize=auto;html=1;exitX=0.5;exitY=1;exitDx=0;exitDy=0;entryX=0.5;entryY=0;entryDx=0;entryDy=0;" edge="1" parent="1" source="4uEbbti4NaN4_RhKvcaB-10" target="4uEbbti4NaN4_RhKvcaB-15">
          <mxGeometry relative="1" as="geometry" />
        </mxCell>
        <mxCell id="4uEbbti4NaN4_RhKvcaB-10" value="&lt;b&gt;Logic Synthesis&lt;br&gt;&lt;/b&gt;" style="rounded=1;whiteSpace=wrap;html=1;fillColor=#647687;fontColor=#ffffff;strokeColor=#314354;" vertex="1" parent="1">
          <mxGeometry x="290" y="300" width="190" height="40" as="geometry" />
        </mxCell>
        <mxCell id="4uEbbti4NaN4_RhKvcaB-14" style="edgeStyle=orthogonalEdgeStyle;rounded=0;orthogonalLoop=1;jettySize=auto;html=1;exitX=0.5;exitY=0;exitDx=0;exitDy=0;entryX=0;entryY=0.5;entryDx=0;entryDy=0;" edge="1" parent="1" source="4uEbbti4NaN4_RhKvcaB-12" target="4uEbbti4NaN4_RhKvcaB-5">
          <mxGeometry relative="1" as="geometry" />
        </mxCell>
        <mxCell id="4uEbbti4NaN4_RhKvcaB-24" style="edgeStyle=orthogonalEdgeStyle;rounded=0;orthogonalLoop=1;jettySize=auto;html=1;exitX=0.75;exitY=1;exitDx=0;exitDy=0;entryX=0.25;entryY=1;entryDx=0;entryDy=0;" edge="1" parent="1" source="4uEbbti4NaN4_RhKvcaB-12" target="4uEbbti4NaN4_RhKvcaB-10">
          <mxGeometry relative="1" as="geometry" />
        </mxCell>
        <mxCell id="4uEbbti4NaN4_RhKvcaB-38" style="edgeStyle=orthogonalEdgeStyle;rounded=0;orthogonalLoop=1;jettySize=auto;html=1;exitX=0.5;exitY=1;exitDx=0;exitDy=0;entryX=0;entryY=0.5;entryDx=0;entryDy=0;" edge="1" parent="1" source="4uEbbti4NaN4_RhKvcaB-12" target="4uEbbti4NaN4_RhKvcaB-26">
          <mxGeometry relative="1" as="geometry" />
        </mxCell>
        <mxCell id="4uEbbti4NaN4_RhKvcaB-12" value="&lt;b&gt;Analyse Reports&lt;br&gt;&lt;/b&gt;" style="rounded=1;whiteSpace=wrap;html=1;fillColor=#fad9d5;strokeColor=#ae4132;" vertex="1" parent="1">
          <mxGeometry x="40" y="300" width="190" height="40" as="geometry" />
        </mxCell>
        <mxCell id="4uEbbti4NaN4_RhKvcaB-19" style="edgeStyle=orthogonalEdgeStyle;rounded=0;orthogonalLoop=1;jettySize=auto;html=1;exitX=1;exitY=0.5;exitDx=0;exitDy=0;entryX=0;entryY=0.5;entryDx=0;entryDy=0;" edge="1" parent="1" source="4uEbbti4NaN4_RhKvcaB-15" target="4uEbbti4NaN4_RhKvcaB-16">
          <mxGeometry relative="1" as="geometry" />
        </mxCell>
        <mxCell id="4uEbbti4NaN4_RhKvcaB-25" style="edgeStyle=orthogonalEdgeStyle;rounded=0;orthogonalLoop=1;jettySize=auto;html=1;exitX=0.75;exitY=1;exitDx=0;exitDy=0;entryX=0;entryY=0.5;entryDx=0;entryDy=0;" edge="1" parent="1" source="4uEbbti4NaN4_RhKvcaB-15" target="4uEbbti4NaN4_RhKvcaB-17">
          <mxGeometry relative="1" as="geometry" />
        </mxCell>
        <mxCell id="4uEbbti4NaN4_RhKvcaB-33" style="edgeStyle=orthogonalEdgeStyle;rounded=0;orthogonalLoop=1;jettySize=auto;html=1;exitX=0.5;exitY=1;exitDx=0;exitDy=0;" edge="1" parent="1" source="4uEbbti4NaN4_RhKvcaB-15" target="4uEbbti4NaN4_RhKvcaB-26">
          <mxGeometry relative="1" as="geometry" />
        </mxCell>
        <mxCell id="4uEbbti4NaN4_RhKvcaB-15" value="&lt;b&gt;Constraints&lt;/b&gt;" style="rounded=1;whiteSpace=wrap;html=1;fillColor=#647687;fontColor=#ffffff;strokeColor=#314354;" vertex="1" parent="1">
          <mxGeometry x="290" y="380" width="190" height="40" as="geometry" />
        </mxCell>
        <mxCell id="4uEbbti4NaN4_RhKvcaB-16" value="&lt;b&gt;IO Constraints&lt;br&gt;&lt;/b&gt;" style="rounded=1;whiteSpace=wrap;html=1;fillColor=#fad9d5;strokeColor=#ae4132;" vertex="1" parent="1">
          <mxGeometry x="580" y="380" width="190" height="40" as="geometry" />
        </mxCell>
        <mxCell id="4uEbbti4NaN4_RhKvcaB-17" value="&lt;b&gt;Timing Constraints&lt;br&gt;&lt;/b&gt;" style="rounded=1;whiteSpace=wrap;html=1;fillColor=#fad9d5;strokeColor=#ae4132;" vertex="1" parent="1">
          <mxGeometry x="580" y="430" width="190" height="40" as="geometry" />
        </mxCell>
        <mxCell id="4uEbbti4NaN4_RhKvcaB-34" style="edgeStyle=orthogonalEdgeStyle;rounded=0;orthogonalLoop=1;jettySize=auto;html=1;exitX=1;exitY=0.5;exitDx=0;exitDy=0;entryX=0;entryY=0.5;entryDx=0;entryDy=0;" edge="1" parent="1" source="4uEbbti4NaN4_RhKvcaB-26" target="4uEbbti4NaN4_RhKvcaB-27">
          <mxGeometry relative="1" as="geometry" />
        </mxCell>
        <mxCell id="4uEbbti4NaN4_RhKvcaB-26" value="&lt;b&gt;Implementation&lt;/b&gt;" style="rounded=1;whiteSpace=wrap;html=1;fillColor=#647687;fontColor=#ffffff;strokeColor=#314354;" vertex="1" parent="1">
          <mxGeometry x="290" y="500" width="190" height="40" as="geometry" />
        </mxCell>
        <mxCell id="4uEbbti4NaN4_RhKvcaB-30" style="edgeStyle=orthogonalEdgeStyle;rounded=0;orthogonalLoop=1;jettySize=auto;html=1;exitX=0.5;exitY=1;exitDx=0;exitDy=0;" edge="1" parent="1" source="4uEbbti4NaN4_RhKvcaB-27">
          <mxGeometry relative="1" as="geometry">
            <mxPoint x="675" y="560" as="targetPoint" />
          </mxGeometry>
        </mxCell>
        <mxCell id="4uEbbti4NaN4_RhKvcaB-27" value="&lt;b&gt;Mapping&lt;/b&gt;" style="rounded=1;whiteSpace=wrap;html=1;fillColor=#ffff88;strokeColor=#36393d;" vertex="1" parent="1">
          <mxGeometry x="580" y="500" width="190" height="40" as="geometry" />
        </mxCell>
        <mxCell id="4uEbbti4NaN4_RhKvcaB-32" style="edgeStyle=orthogonalEdgeStyle;rounded=0;orthogonalLoop=1;jettySize=auto;html=1;exitX=0.5;exitY=1;exitDx=0;exitDy=0;entryX=0.5;entryY=0;entryDx=0;entryDy=0;" edge="1" parent="1" source="4uEbbti4NaN4_RhKvcaB-28" target="4uEbbti4NaN4_RhKvcaB-29">
          <mxGeometry relative="1" as="geometry" />
        </mxCell>
        <mxCell id="4uEbbti4NaN4_RhKvcaB-28" value="&lt;b&gt;Placing&lt;/b&gt;" style="rounded=1;whiteSpace=wrap;html=1;fillColor=#ffff88;strokeColor=#36393d;" vertex="1" parent="1">
          <mxGeometry x="580" y="565" width="190" height="40" as="geometry" />
        </mxCell>
        <mxCell id="4uEbbti4NaN4_RhKvcaB-36" style="edgeStyle=orthogonalEdgeStyle;rounded=0;orthogonalLoop=1;jettySize=auto;html=1;exitX=0;exitY=0.5;exitDx=0;exitDy=0;" edge="1" parent="1" source="4uEbbti4NaN4_RhKvcaB-29" target="4uEbbti4NaN4_RhKvcaB-35">
          <mxGeometry relative="1" as="geometry" />
        </mxCell>
        <mxCell id="4uEbbti4NaN4_RhKvcaB-29" value="&lt;b&gt;Routing&lt;/b&gt;" style="rounded=1;whiteSpace=wrap;html=1;fillColor=#ffff88;strokeColor=#36393d;" vertex="1" parent="1">
          <mxGeometry x="580" y="630" width="190" height="40" as="geometry" />
        </mxCell>
        <mxCell id="4uEbbti4NaN4_RhKvcaB-39" style="edgeStyle=orthogonalEdgeStyle;rounded=0;orthogonalLoop=1;jettySize=auto;html=1;exitX=0;exitY=0.5;exitDx=0;exitDy=0;entryX=0.211;entryY=1;entryDx=0;entryDy=0;entryPerimeter=0;" edge="1" parent="1" source="4uEbbti4NaN4_RhKvcaB-35" target="4uEbbti4NaN4_RhKvcaB-12">
          <mxGeometry relative="1" as="geometry" />
        </mxCell>
        <mxCell id="4uEbbti4NaN4_RhKvcaB-41" style="edgeStyle=orthogonalEdgeStyle;rounded=0;orthogonalLoop=1;jettySize=auto;html=1;exitX=0.5;exitY=1;exitDx=0;exitDy=0;entryX=0.5;entryY=0;entryDx=0;entryDy=0;" edge="1" parent="1" source="4uEbbti4NaN4_RhKvcaB-35" target="4uEbbti4NaN4_RhKvcaB-40">
          <mxGeometry relative="1" as="geometry" />
        </mxCell>
        <mxCell id="4uEbbti4NaN4_RhKvcaB-35" value="&lt;b&gt;STA&lt;/b&gt;" style="rounded=1;whiteSpace=wrap;html=1;fillColor=#647687;fontColor=#ffffff;strokeColor=#314354;" vertex="1" parent="1">
          <mxGeometry x="290" y="630" width="190" height="40" as="geometry" />
        </mxCell>
        <mxCell id="4uEbbti4NaN4_RhKvcaB-44" style="edgeStyle=orthogonalEdgeStyle;rounded=0;orthogonalLoop=1;jettySize=auto;html=1;exitX=0.5;exitY=1;exitDx=0;exitDy=0;entryX=0.5;entryY=0;entryDx=0;entryDy=0;" edge="1" parent="1" source="4uEbbti4NaN4_RhKvcaB-40" target="4uEbbti4NaN4_RhKvcaB-43">
          <mxGeometry relative="1" as="geometry" />
        </mxCell>
        <mxCell id="4uEbbti4NaN4_RhKvcaB-40" value="&lt;b&gt;Bit Stream&lt;br&gt;&lt;/b&gt;" style="rounded=1;whiteSpace=wrap;html=1;fillColor=#647687;fontColor=#ffffff;strokeColor=#314354;" vertex="1" parent="1">
          <mxGeometry x="290" y="720" width="190" height="40" as="geometry" />
        </mxCell>
        <mxCell id="4uEbbti4NaN4_RhKvcaB-46" style="edgeStyle=orthogonalEdgeStyle;rounded=0;orthogonalLoop=1;jettySize=auto;html=1;exitX=1;exitY=0.5;exitDx=0;exitDy=0;entryX=0;entryY=0.5;entryDx=0;entryDy=0;" edge="1" parent="1" source="4uEbbti4NaN4_RhKvcaB-43" target="4uEbbti4NaN4_RhKvcaB-45">
          <mxGeometry relative="1" as="geometry" />
        </mxCell>
        <mxCell id="4uEbbti4NaN4_RhKvcaB-43" value="&lt;b&gt;Program the FPGA&lt;br&gt;&lt;/b&gt;" style="rounded=1;whiteSpace=wrap;html=1;fillColor=#647687;fontColor=#ffffff;strokeColor=#314354;" vertex="1" parent="1">
          <mxGeometry x="290" y="800" width="190" height="40" as="geometry" />
        </mxCell>
        <mxCell id="4uEbbti4NaN4_RhKvcaB-45" value="&lt;b&gt;Live Debug&lt;br&gt;&lt;/b&gt;" style="rounded=1;whiteSpace=wrap;html=1;fillColor=#ffcccc;strokeColor=#36393d;" vertex="1" parent="1">
          <mxGeometry x="570" y="800" width="190" height="40" as="geometry" />
        </mxCell>
        <mxCell id="4uEbbti4NaN4_RhKvcaB-49" style="edgeStyle=orthogonalEdgeStyle;rounded=0;orthogonalLoop=1;jettySize=auto;html=1;exitX=1;exitY=0.5;exitDx=0;exitDy=0;entryX=0.5;entryY=1;entryDx=0;entryDy=0;" edge="1" parent="1" source="4uEbbti4NaN4_RhKvcaB-48" target="4uEbbti4NaN4_RhKvcaB-5">
          <mxGeometry relative="1" as="geometry" />
        </mxCell>
        <mxCell id="4uEbbti4NaN4_RhKvcaB-48" value="&lt;b&gt;&amp;nbsp;Live Debug Cores&lt;br&gt;&lt;/b&gt;" style="rounded=1;whiteSpace=wrap;html=1;fillColor=#ffcccc;strokeColor=#36393d;" vertex="1" parent="1">
          <mxGeometry x="160" y="254" width="190" height="40" as="geometry" />
        </mxCell>
      </root>
    </mxGraphModel>
  </diagram>
</mxfile>
